<?xml version="1.0" encoding="UTF-8"?>
<svg version="1.1" viewBox="0 0 300 300" xmlns="http://www.w3.org/2000/svg" xmlns:cc="http://creativecommons.org/ns#" xmlns:dc="http://purl.org/dc/elements/1.1/" xmlns:rdf="http://www.w3.org/1999/02/22-rdf-syntax-ns#">
<metadata>
<rdf:RDF>
<cc:Work rdf:about="">
<dc:format>image/svg+xml</dc:format>
<dc:type rdf:resource="http://purl.org/dc/dcmitype/StillImage"/>
</cc:Work>
</rdf:RDF>
</metadata>
<path d="m150 1.0238 133.58 66.793-133.58 66.793-133.58-66.793z" fill="#486e3f" stroke-width="0"/>
<path d="m283.72 67.767-133.6 66.813v164.04l133.6-66.813z" fill="#966c4a" stroke-width="0"/>
<path d="m16.519 67.766 133.6 66.813v164.04l-133.6-66.813z" fill="#966c4a" stroke-width="0"/>
<path d="m16.519 67.766 8.35 4.1759v10.253l-8.35-4.1759z" fill="#527d47" stroke-width="0"/>
<path transform="matrix(.89439 .44729 0 1 0 0)" d="m18.469 69.757h9.336v10.253h-9.336z" fill="#527d47" stroke-width="0"/>
<path transform="matrix(.89439 .44729 0 1 0 0)" d="m18.469 80.01h9.336v10.253h-9.336z" fill="#496f3f" stroke-width="0"/>
<path transform="matrix(.89439 .44729 0 1 0 0)" d="m18.469 90.263h9.336v10.253h-9.336z" fill="#593d29" stroke-width="0"/>
<path transform="matrix(.89439 .44729 0 1 0 0)" d="m18.469 100.52h9.336v10.253h-9.336z" fill="#966c4a" stroke-width="0"/>
<path transform="matrix(.89439 .44729 0 1 0 0)" d="m18.469 110.77h9.336v10.253h-9.336z" fill="#79553a" stroke-width="0"/>
<path transform="matrix(.89439 .44729 0 1 0 0)" d="m18.469 121.02h9.336v10.253h-9.336z" fill="#b9855c" stroke-width="0"/>
<path transform="matrix(.89439 .44729 0 1 0 0)" d="m18.469 131.27h9.336v10.253h-9.336z" fill="#79553a" stroke-width="0"/>
<path transform="matrix(.89439 .44729 0 1 0 0)" d="m18.469 141.53h9.336v10.253h-9.336z" fill="#966c4a" stroke-width="0"/>
<path transform="matrix(.89439 .44729 0 1 0 0)" d="m18.469 151.78h9.336v10.253h-9.336z" fill="#79553a" stroke-width="0"/>
<path transform="matrix(.89439 .44729 0 1 0 0)" d="m18.469 162.03h9.336v10.253h-9.336z" fill="#79553a" stroke-width="0"/>
<path transform="matrix(.89439 .44729 0 1 0 0)" d="m18.469 172.28h9.336v10.253h-9.336z" fill="#966c4a" stroke-width="0"/>
<path transform="matrix(.89439 .44729 0 1 0 0)" d="m18.469 182.54h9.336v10.253h-9.336z" fill="#79553a" stroke-width="0"/>
<path transform="matrix(.89439 .44729 0 1 0 0)" d="m18.469 192.79h9.336v10.253h-9.336z" fill="#79553a" stroke-width="0"/>
<path transform="matrix(.89439 .44729 0 1 0 0)" d="m18.469 203.04h9.336v10.253h-9.336z" fill="#966c4a" stroke-width="0"/>
<path transform="matrix(.89439 .44729 0 1 0 0)" d="m18.469 213.3h9.336v10.253h-9.336z" fill="#966c4a" stroke-width="0"/>
<path transform="matrix(.89439 .44729 0 1 0 0)" d="m27.805 59.505h9.336v10.253h-9.336z" fill="#466b3c" stroke-width="0"/>
<path transform="matrix(.89439 .44729 0 1 0 0)" d="m27.805 69.757h9.336v10.253h-9.336z" fill="#44683b" stroke-width="0"/>
<path transform="matrix(.89439 .44729 0 1 0 0)" d="m27.805 80.01h9.336v10.253h-9.336z" fill="#593d29" stroke-width="0"/>
<path transform="matrix(.89439 .44729 0 1 0 0)" d="m27.805 90.263h9.336v10.253h-9.336z" fill="#6c6c6c" stroke-width="0"/>
<path transform="matrix(.89439 .44729 0 1 0 0)" d="m27.805 100.52h9.336v10.253h-9.336z" fill="#79553a" stroke-width="0"/>
<path transform="matrix(.89439 .44729 0 1 0 0)" d="m27.805 110.77h9.336v10.253h-9.336z" fill="#593d29" stroke-width="0"/>
<path transform="matrix(.89439 .44729 0 1 0 0)" d="m27.805 121.02h9.336v10.253h-9.336z" fill="#79553a" stroke-width="0"/>
<path transform="matrix(.89439 .44729 0 1 0 0)" d="m27.805 131.27h9.336v10.253h-9.336z" fill="#79553a" stroke-width="0"/>
<path transform="matrix(.89439 .44729 0 1 0 0)" d="m27.805 141.53h9.336v10.253h-9.336z" fill="#79553a" stroke-width="0"/>
<path transform="matrix(.89439 .44729 0 1 0 0)" d="m27.805 151.78h9.336v10.253h-9.336z" fill="#966c4a" stroke-width="0"/>
<path transform="matrix(.89439 .44729 0 1 0 0)" d="m27.805 162.03h9.336v10.253h-9.336z" fill="#966c4a" stroke-width="0"/>
<path transform="matrix(.89439 .44729 0 1 0 0)" d="m27.805 172.28h9.336v10.253h-9.336z" fill="#79553a" stroke-width="0"/>
<path transform="matrix(.89439 .44729 0 1 0 0)" d="m27.805 182.54h9.336v10.253h-9.336z" fill="#593d29" stroke-width="0"/>
<path transform="matrix(.89439 .44729 0 1 0 0)" d="m27.805 192.79h9.336v10.253h-9.336z" fill="#966c4a" stroke-width="0"/>
<path transform="matrix(.89439 .44729 0 1 0 0)" d="m27.805 203.04h9.336v10.253h-9.336z" fill="#79553a" stroke-width="0"/>
<path transform="matrix(.89439 .44729 0 1 0 0)" d="m27.805 213.3h9.336v10.253h-9.336z" fill="#79553a" stroke-width="0"/>
<path transform="matrix(.89439 .44729 0 1 0 0)" d="m37.141 59.505h9.336v10.253h-9.336z" fill="#496f3f" stroke-width="0"/>
<path transform="matrix(.89439 .44729 0 1 0 0)" d="m37.141 69.757h9.336v10.253h-9.336z" fill="#527d47" stroke-width="0"/>
<path transform="matrix(.89439 .44729 0 1 0 0)" d="m37.141 80.01h9.336v10.253h-9.336z" fill="#57844b" stroke-width="0"/>
<path transform="matrix(.89439 .44729 0 1 0 0)" d="m37.141 90.263h9.336v10.253h-9.336z" fill="#593d29" stroke-width="0"/>
<path transform="matrix(.89439 .44729 0 1 0 0)" d="m37.141 100.52h9.336v10.253h-9.336z" fill="#966c4a" stroke-width="0"/>
<path transform="matrix(.89439 .44729 0 1 0 0)" d="m37.141 110.77h9.336v10.253h-9.336z" fill="#966c4a" stroke-width="0"/>
<path transform="matrix(.89439 .44729 0 1 0 0)" d="m37.141 121.02h9.336v10.253h-9.336z" fill="#79553a" stroke-width="0"/>
<path transform="matrix(.89439 .44729 0 1 0 0)" d="m37.141 131.27h9.336v10.253h-9.336z" fill="#b9855c" stroke-width="0"/>
<path transform="matrix(.89439 .44729 0 1 0 0)" d="m37.141 141.53h9.336v10.253h-9.336z" fill="#79553a" stroke-width="0"/>
<path transform="matrix(.89439 .44729 0 1 0 0)" d="m37.141 151.78h9.336v10.253h-9.336z" fill="#593d29" stroke-width="0"/>
<path transform="matrix(.89439 .44729 0 1 0 0)" d="m37.141 162.03h9.336v10.253h-9.336z" fill="#79553a" stroke-width="0"/>
<path transform="matrix(.89439 .44729 0 1 0 0)" d="m37.141 172.28h9.336v10.253h-9.336z" fill="#79553a" stroke-width="0"/>
<path transform="matrix(.89439 .44729 0 1 0 0)" d="m37.141 182.54h9.336v10.253h-9.336z" fill="#966c4a" stroke-width="0"/>
<path transform="matrix(.89439 .44729 0 1 0 0)" d="m37.141 192.79h9.336v10.253h-9.336z" fill="#79553a" stroke-width="0"/>
<path transform="matrix(.89439 .44729 0 1 0 0)" d="m37.141 203.04h9.336v10.253h-9.336z" fill="#593d29" stroke-width="0"/>
<path transform="matrix(.89439 .44729 0 1 0 0)" d="m37.141 213.3h9.336v10.253h-9.336z" fill="#b9855c" stroke-width="0"/>
<path transform="matrix(.89439 .44729 0 1 0 0)" d="m46.477 59.505h9.336v10.253h-9.336z" fill="#44683b" stroke-width="0"/>
<path transform="matrix(.89439 .44729 0 1 0 0)" d="m46.477 69.757h9.336v10.253h-9.336z" fill="#466b3c" stroke-width="0"/>
<path transform="matrix(.89439 .44729 0 1 0 0)" d="m46.477 80.01h9.336v10.253h-9.336z" fill="#406237" stroke-width="0"/>
<path transform="matrix(.89439 .44729 0 1 0 0)" d="m46.477 90.263h9.336v10.253h-9.336z" fill="#593d29" stroke-width="0"/>
<path transform="matrix(.89439 .44729 0 1 0 0)" d="m46.477 100.52h9.336v10.253h-9.336z" fill="#b9855c" stroke-width="0"/>
<path transform="matrix(.89439 .44729 0 1 0 0)" d="m46.477 110.77h9.336v10.253h-9.336z" fill="#966c4a" stroke-width="0"/>
<path transform="matrix(.89439 .44729 0 1 0 0)" d="m46.477 121.02h9.336v10.253h-9.336z" fill="#79553a" stroke-width="0"/>
<path transform="matrix(.89439 .44729 0 1 0 0)" d="m46.477 131.27h9.336v10.253h-9.336z" fill="#b9855c" stroke-width="0"/>
<path transform="matrix(.89439 .44729 0 1 0 0)" d="m46.477 141.53h9.336v10.253h-9.336z" fill="#966c4a" stroke-width="0"/>
<path transform="matrix(.89439 .44729 0 1 0 0)" d="m46.477 151.78h9.336v10.253h-9.336z" fill="#79553a" stroke-width="0"/>
<path transform="matrix(.89439 .44729 0 1 0 0)" d="m46.477 162.03h9.336v10.253h-9.336z" fill="#b9855c" stroke-width="0"/>
<path transform="matrix(.89439 .44729 0 1 0 0)" d="m46.477 172.28h9.336v10.253h-9.336z" fill="#966c4a" stroke-width="0"/>
<path transform="matrix(.89439 .44729 0 1 0 0)" d="m46.477 182.54h9.336v10.253h-9.336z" fill="#79553a" stroke-width="0"/>
<path transform="matrix(.89439 .44729 0 1 0 0)" d="m46.477 192.79h9.336v10.253h-9.336z" fill="#79553a" stroke-width="0"/>
<path transform="matrix(.89439 .44729 0 1 0 0)" d="m46.477 203.04h9.336v10.253h-9.336z" fill="#b9855c" stroke-width="0"/>
<path transform="matrix(.89439 .44729 0 1 0 0)" d="m46.477 213.3h9.336v10.253h-9.336z" fill="#966c4a" stroke-width="0"/>
<path transform="matrix(.89439 .44729 0 1 0 0)" d="m55.813 59.505h9.336v10.253h-9.336z" fill="#527d47" stroke-width="0"/>
<path transform="matrix(.89439 .44729 0 1 0 0)" d="m55.813 69.757h9.336v10.253h-9.336z" fill="#57844b" stroke-width="0"/>
<path transform="matrix(.89439 .44729 0 1 0 0)" d="m55.813 80.01h9.336v10.253h-9.336z" fill="#527d47" stroke-width="0"/>
<path transform="matrix(.89439 .44729 0 1 0 0)" d="m55.813 90.263h9.336v10.253h-9.336z" fill="#476b3d" stroke-width="0"/>
<path transform="matrix(.89439 .44729 0 1 0 0)" d="m55.813 100.52h9.336v10.253h-9.336z" fill="#593d29" stroke-width="0"/>
<path transform="matrix(.89439 .44729 0 1 0 0)" d="m55.813 110.77h9.336v10.253h-9.336z" fill="#79553a" stroke-width="0"/>
<path transform="matrix(.89439 .44729 0 1 0 0)" d="m55.813 121.02h9.336v10.253h-9.336z" fill="#878787" stroke-width="0"/>
<path transform="matrix(.89439 .44729 0 1 0 0)" d="m55.813 131.27h9.336v10.253h-9.336z" fill="#966c4a" stroke-width="0"/>
<path transform="matrix(.89439 .44729 0 1 0 0)" d="m55.813 141.53h9.336v10.253h-9.336z" fill="#79553a" stroke-width="0"/>
<path transform="matrix(.89439 .44729 0 1 0 0)" d="m55.813 151.78h9.336v10.253h-9.336z" fill="#79553a" stroke-width="0"/>
<path transform="matrix(.89439 .44729 0 1 0 0)" d="m55.813 162.03h9.336v10.253h-9.336z" fill="#b9855c" stroke-width="0"/>
<path transform="matrix(.89439 .44729 0 1 0 0)" d="m55.813 172.28h9.336v10.253h-9.336z" fill="#966c4a" stroke-width="0"/>
<path transform="matrix(.89439 .44729 0 1 0 0)" d="m55.813 182.54h9.336v10.253h-9.336z" fill="#966c4a" stroke-width="0"/>
<path transform="matrix(.89439 .44729 0 1 0 0)" d="m55.813 192.79h9.336v10.253h-9.336z" fill="#745844" stroke-width="0"/>
<path transform="matrix(.89439 .44729 0 1 0 0)" d="m55.813 203.04h9.336v10.253h-9.336z" fill="#79553a" stroke-width="0"/>
<path transform="matrix(.89439 .44729 0 1 0 0)" d="m55.813 213.3h9.336v10.253h-9.336z" fill="#966c4a" stroke-width="0"/>
<path transform="matrix(.89439 .44729 0 1 0 0)" d="m65.149 59.505h9.336v10.253h-9.336z" fill="#466b3c" stroke-width="0"/>
<path transform="matrix(.89439 .44729 0 1 0 0)" d="m65.149 69.757h9.336v10.253h-9.336z" fill="#593d29" stroke-width="0"/>
<path transform="matrix(.89439 .44729 0 1 0 0)" d="m65.149 80.01h9.336v10.253h-9.336z" fill="#593d29" stroke-width="0"/>
<path transform="matrix(.89439 .44729 0 1 0 0)" d="m65.149 90.263h9.336v10.253h-9.336z" fill="#593d29" stroke-width="0"/>
<path transform="matrix(.89439 .44729 0 1 0 0)" d="m65.149 100.52h9.336v10.253h-9.336z" fill="#966c4a" stroke-width="0"/>
<path transform="matrix(.89439 .44729 0 1 0 0)" d="m65.149 110.77h9.336v10.253h-9.336z" fill="#966c4a" stroke-width="0"/>
<path transform="matrix(.89439 .44729 0 1 0 0)" d="m65.149 121.02h9.336v10.253h-9.336z" fill="#79553a" stroke-width="0"/>
<path transform="matrix(.89439 .44729 0 1 0 0)" d="m65.149 131.27h9.336v10.253h-9.336z" fill="#966c4a" stroke-width="0"/>
<path transform="matrix(.89439 .44729 0 1 0 0)" d="m65.149 141.53h9.336v10.253h-9.336z" fill="#966c4a" stroke-width="0"/>
<path transform="matrix(.89439 .44729 0 1 0 0)" d="m65.149 151.78h9.336v10.253h-9.336z" fill="#593d29" stroke-width="0"/>
<path transform="matrix(.89439 .44729 0 1 0 0)" d="m65.149 162.03h9.336v10.253h-9.336z" fill="#79553a" stroke-width="0"/>
<path transform="matrix(.89439 .44729 0 1 0 0)" d="m65.149 172.28h9.336v10.253h-9.336z" fill="#b9855c" stroke-width="0"/>
<path transform="matrix(.89439 .44729 0 1 0 0)" d="m65.149 182.54h9.336v10.253h-9.336z" fill="#966c4a" stroke-width="0"/>
<path transform="matrix(.89439 .44729 0 1 0 0)" d="m65.149 192.79h9.336v10.253h-9.336z" fill="#79553a" stroke-width="0"/>
<path transform="matrix(.89439 .44729 0 1 0 0)" d="m65.149 203.04h9.336v10.253h-9.336z" fill="#593d29" stroke-width="0"/>
<path transform="matrix(.89439 .44729 0 1 0 0)" d="m65.149 213.3h9.336v10.253h-9.336z" fill="#79553a" stroke-width="0"/>
<path transform="matrix(.89439 .44729 0 1 0 0)" d="m74.485 59.505h9.336v10.253h-9.336z" fill="#527d47" stroke-width="0"/>
<path transform="matrix(.89439 .44729 0 1 0 0)" d="m74.485 69.757h9.336v10.253h-9.336z" fill="#527d47" stroke-width="0"/>
<path transform="matrix(.89439 .44729 0 1 0 0)" d="m74.485 80.01h9.336v10.253h-9.336z" fill="#466b3c" stroke-width="0"/>
<path transform="matrix(.89439 .44729 0 1 0 0)" d="m74.485 90.263h9.336v10.253h-9.336z" fill="#593d29" stroke-width="0"/>
<path transform="matrix(.89439 .44729 0 1 0 0)" d="m74.485 100.52h9.336v10.253h-9.336z" fill="#79553a" stroke-width="0"/>
<path transform="matrix(.89439 .44729 0 1 0 0)" d="m74.485 110.77h9.336v10.253h-9.336z" fill="#593d29" stroke-width="0"/>
<path transform="matrix(.89439 .44729 0 1 0 0)" d="m74.485 121.02h9.336v10.253h-9.336z" fill="#79553a" stroke-width="0"/>
<path transform="matrix(.89439 .44729 0 1 0 0)" d="m74.485 131.27h9.336v10.253h-9.336z" fill="#79553a" stroke-width="0"/>
<path transform="matrix(.89439 .44729 0 1 0 0)" d="m74.485 141.53h9.336v10.253h-9.336z" fill="#79553a" stroke-width="0"/>
<path transform="matrix(.89439 .44729 0 1 0 0)" d="m74.485 151.78h9.336v10.253h-9.336z" fill="#593d29" stroke-width="0"/>
<path transform="matrix(.89439 .44729 0 1 0 0)" d="m74.485 162.03h9.336v10.253h-9.336z" fill="#b9855c" stroke-width="0"/>
<path transform="matrix(.89439 .44729 0 1 0 0)" d="m74.485 172.28h9.336v10.253h-9.336z" fill="#79553a" stroke-width="0"/>
<path transform="matrix(.89439 .44729 0 1 0 0)" d="m74.485 182.54h9.336v10.253h-9.336z" fill="#b9855c" stroke-width="0"/>
<path transform="matrix(.89439 .44729 0 1 0 0)" d="m74.485 192.79h9.336v10.253h-9.336z" fill="#966c4a" stroke-width="0"/>
<path transform="matrix(.89439 .44729 0 1 0 0)" d="m74.485 203.04h9.336v10.253h-9.336z" fill="#79553a" stroke-width="0"/>
<path transform="matrix(.89439 .44729 0 1 0 0)" d="m74.485 213.3h9.336v10.253h-9.336z" fill="#878787" stroke-width="0"/>
<path transform="matrix(.89439 .44729 0 1 0 0)" d="m83.821 59.505h9.336v10.253h-9.336z" fill="#496f3f" stroke-width="0"/>
<path transform="matrix(.89439 .44729 0 1 0 0)" d="m83.821 69.757h9.336v10.253h-9.336z" fill="#3f6037" stroke-width="0"/>
<path transform="matrix(.89439 .44729 0 1 0 0)" d="m83.821 80.01h9.336v10.253h-9.336z" fill="#593d29" stroke-width="0"/>
<path transform="matrix(.89439 .44729 0 1 0 0)" d="m83.821 90.263h9.336v10.253h-9.336z" fill="#593d29" stroke-width="0"/>
<path transform="matrix(.89439 .44729 0 1 0 0)" d="m83.821 100.52h9.336v10.253h-9.336z" fill="#79553a" stroke-width="0"/>
<path transform="matrix(.89439 .44729 0 1 0 0)" d="m83.821 110.77h9.336v10.253h-9.336z" fill="#593d29" stroke-width="0"/>
<path transform="matrix(.89439 .44729 0 1 0 0)" d="m83.821 121.02h9.336v10.253h-9.336z" fill="#b9855c" stroke-width="0"/>
<path transform="matrix(.89439 .44729 0 1 0 0)" d="m83.821 131.27h9.336v10.253h-9.336z" fill="#79553a" stroke-width="0"/>
<path transform="matrix(.89439 .44729 0 1 0 0)" d="m83.821 141.53h9.336v10.253h-9.336z" fill="#593d29" stroke-width="0"/>
<path transform="matrix(.89439 .44729 0 1 0 0)" d="m83.821 151.78h9.336v10.253h-9.336z" fill="#79553a" stroke-width="0"/>
<path transform="matrix(.89439 .44729 0 1 0 0)" d="m83.821 162.03h9.336v10.253h-9.336z" fill="#966c4a" stroke-width="0"/>
<path transform="matrix(.89439 .44729 0 1 0 0)" d="m83.821 172.28h9.336v10.253h-9.336z" fill="#966c4a" stroke-width="0"/>
<path transform="matrix(.89439 .44729 0 1 0 0)" d="m83.821 182.54h9.336v10.253h-9.336z" fill="#79553a" stroke-width="0"/>
<path transform="matrix(.89439 .44729 0 1 0 0)" d="m83.821 192.79h9.336v10.253h-9.336z" fill="#966c4a" stroke-width="0"/>
<path transform="matrix(.89439 .44729 0 1 0 0)" d="m83.821 203.04h9.336v10.253h-9.336z" fill="#593d29" stroke-width="0"/>
<path transform="matrix(.89439 .44729 0 1 0 0)" d="m83.821 213.3h9.336v10.253h-9.336z" fill="#79553a" stroke-width="0"/>
<path transform="matrix(.89439 .44729 0 1 0 0)" d="m93.157 59.505h9.336v10.253h-9.336z" fill="#496f3f" stroke-width="0"/>
<path transform="matrix(.89439 .44729 0 1 0 0)" d="m93.157 69.757h9.336v10.253h-9.336z" fill="#57844b" stroke-width="0"/>
<path transform="matrix(.89439 .44729 0 1 0 0)" d="m93.157 80.01h9.336v10.253h-9.336z" fill="#527d47" stroke-width="0"/>
<path transform="matrix(.89439 .44729 0 1 0 0)" d="m93.157 90.263h9.336v10.253h-9.336z" fill="#3e5e35" stroke-width="0"/>
<path transform="matrix(.89439 .44729 0 1 0 0)" d="m93.157 100.52h9.336v10.253h-9.336z" fill="#593d29" stroke-width="0"/>
<path transform="matrix(.89439 .44729 0 1 0 0)" d="m93.157 110.77h9.336v10.253h-9.336z" fill="#593d29" stroke-width="0"/>
<path transform="matrix(.89439 .44729 0 1 0 0)" d="m93.157 121.02h9.336v10.253h-9.336z" fill="#b9855c" stroke-width="0"/>
<path transform="matrix(.89439 .44729 0 1 0 0)" d="m93.157 131.27h9.336v10.253h-9.336z" fill="#966c4a" stroke-width="0"/>
<path transform="matrix(.89439 .44729 0 1 0 0)" d="m93.157 141.53h9.336v10.253h-9.336z" fill="#79553a" stroke-width="0"/>
<path transform="matrix(.89439 .44729 0 1 0 0)" d="m93.157 151.78h9.336v10.253h-9.336z" fill="#79553a" stroke-width="0"/>
<path transform="matrix(.89439 .44729 0 1 0 0)" d="m93.157 162.03h9.336v10.253h-9.336z" fill="#593d29" stroke-width="0"/>
<path transform="matrix(.89439 .44729 0 1 0 0)" d="m93.157 172.28h9.336v10.253h-9.336z" fill="#6c6c6c" stroke-width="0"/>
<path transform="matrix(.89439 .44729 0 1 0 0)" d="m93.157 182.54h9.336v10.253h-9.336z" fill="#79553a" stroke-width="0"/>
<path transform="matrix(.89439 .44729 0 1 0 0)" d="m93.157 192.79h9.336v10.253h-9.336z" fill="#79553a" stroke-width="0"/>
<path transform="matrix(.89439 .44729 0 1 0 0)" d="m93.157 203.04h9.336v10.253h-9.336z" fill="#b9855c" stroke-width="0"/>
<path transform="matrix(.89439 .44729 0 1 0 0)" d="m93.157 213.3h9.336v10.253h-9.336z" fill="#966c4a" stroke-width="0"/>
<path transform="matrix(.89439 .44729 0 1 0 0)" d="m102.49 59.505h9.336v10.253h-9.336z" fill="#4d7643" stroke-width="0"/>
<path transform="matrix(.89439 .44729 0 1 0 0)" d="m102.49 69.757h9.336v10.253h-9.336z" fill="#496f3f" stroke-width="0"/>
<path transform="matrix(.89439 .44729 0 1 0 0)" d="m102.49 80.01h9.336v10.253h-9.336z" fill="#4d7643" stroke-width="0"/>
<path transform="matrix(.89439 .44729 0 1 0 0)" d="m102.49 90.263h9.336v10.253h-9.336z" fill="#593d29" stroke-width="0"/>
<path transform="matrix(.89439 .44729 0 1 0 0)" d="m102.49 100.52h9.336v10.253h-9.336z" fill="#593d29" stroke-width="0"/>
<path transform="matrix(.89439 .44729 0 1 0 0)" d="m102.49 110.77h9.336v10.253h-9.336z" fill="#79553a" stroke-width="0"/>
<path transform="matrix(.89439 .44729 0 1 0 0)" d="m102.49 121.02h9.336v10.253h-9.336z" fill="#79553a" stroke-width="0"/>
<path transform="matrix(.89439 .44729 0 1 0 0)" d="m102.49 131.27h9.336v10.253h-9.336z" fill="#593d29" stroke-width="0"/>
<path transform="matrix(.89439 .44729 0 1 0 0)" d="m102.49 141.53h9.336v10.253h-9.336z" fill="#966c4a" stroke-width="0"/>
<path transform="matrix(.89439 .44729 0 1 0 0)" d="m102.49 151.78h9.336v10.253h-9.336z" fill="#79553a" stroke-width="0"/>
<path transform="matrix(.89439 .44729 0 1 0 0)" d="m102.49 162.03h9.336v10.253h-9.336z" fill="#b9855c" stroke-width="0"/>
<path transform="matrix(.89439 .44729 0 1 0 0)" d="m102.49 172.28h9.336v10.253h-9.336z" fill="#966c4a" stroke-width="0"/>
<path transform="matrix(.89439 .44729 0 1 0 0)" d="m102.49 182.54h9.336v10.253h-9.336z" fill="#79553a" stroke-width="0"/>
<path transform="matrix(.89439 .44729 0 1 0 0)" d="m102.49 192.79h9.336v10.253h-9.336z" fill="#593d29" stroke-width="0"/>
<path transform="matrix(.89439 .44729 0 1 0 0)" d="m102.49 203.04h9.336v10.253h-9.336z" fill="#b9855c" stroke-width="0"/>
<path transform="matrix(.89439 .44729 0 1 0 0)" d="m102.49 213.3h9.336v10.253h-9.336z" fill="#966c4a" stroke-width="0"/>
<path transform="matrix(.89439 .44729 0 1 0 0)" d="m111.83 59.505h9.336v10.253h-9.336z" fill="#527d47" stroke-width="0"/>
<path transform="matrix(.89439 .44729 0 1 0 0)" d="m111.83 69.757h9.336v10.253h-9.336z" fill="#527d47" stroke-width="0"/>
<path transform="matrix(.89439 .44729 0 1 0 0)" d="m111.83 80.01h9.336v10.253h-9.336z" fill="#496f3f" stroke-width="0"/>
<path transform="matrix(.89439 .44729 0 1 0 0)" d="m111.83 90.263h9.336v10.253h-9.336z" fill="#45693b" stroke-width="0"/>
<path transform="matrix(.89439 .44729 0 1 0 0)" d="m111.83 100.52h9.336v10.253h-9.336z" fill="#593d29" stroke-width="0"/>
<path transform="matrix(.89439 .44729 0 1 0 0)" d="m111.83 110.77h9.336v10.253h-9.336z" fill="#79553a" stroke-width="0"/>
<path transform="matrix(.89439 .44729 0 1 0 0)" d="m111.83 121.02h9.336v10.253h-9.336z" fill="#b9855c" stroke-width="0"/>
<path transform="matrix(.89439 .44729 0 1 0 0)" d="m111.83 131.27h9.336v10.253h-9.336z" fill="#966c4a" stroke-width="0"/>
<path transform="matrix(.89439 .44729 0 1 0 0)" d="m111.83 141.53h9.336v10.253h-9.336z" fill="#966c4a" stroke-width="0"/>
<path transform="matrix(.89439 .44729 0 1 0 0)" d="m111.83 151.78h9.336v10.253h-9.336z" fill="#79553a" stroke-width="0"/>
<path transform="matrix(.89439 .44729 0 1 0 0)" d="m111.83 162.03h9.336v10.253h-9.336z" fill="#b9855c" stroke-width="0"/>
<path transform="matrix(.89439 .44729 0 1 0 0)" d="m111.83 172.28h9.336v10.253h-9.336z" fill="#966c4a" stroke-width="0"/>
<path transform="matrix(.89439 .44729 0 1 0 0)" d="m111.83 182.54h9.336v10.253h-9.336z" fill="#79553a" stroke-width="0"/>
<path transform="matrix(.89439 .44729 0 1 0 0)" d="m111.83 192.79h9.336v10.253h-9.336z" fill="#b9855c" stroke-width="0"/>
<path transform="matrix(.89439 .44729 0 1 0 0)" d="m111.83 203.04h9.336v10.253h-9.336z" fill="#79553a" stroke-width="0"/>
<path transform="matrix(.89439 .44729 0 1 0 0)" d="m111.83 213.3h9.336v10.253h-9.336z" fill="#79553a" stroke-width="0"/>
<path transform="matrix(.89439 .44729 0 1 0 0)" d="m121.16 59.505h9.336v10.253h-9.336z" fill="#4d7643" stroke-width="0"/>
<path transform="matrix(.89439 .44729 0 1 0 0)" d="m121.16 69.757h9.336v10.253h-9.336z" fill="#476d3e" stroke-width="0"/>
<path transform="matrix(.89439 .44729 0 1 0 0)" d="m121.16 80.01h9.336v10.253h-9.336z" fill="#548049" stroke-width="0"/>
<path transform="matrix(.89439 .44729 0 1 0 0)" d="m121.16 90.263h9.336v10.253h-9.336z" fill="#593d29" stroke-width="0"/>
<path transform="matrix(.89439 .44729 0 1 0 0)" d="m121.16 100.52h9.336v10.253h-9.336z" fill="#6c6c6c" stroke-width="0"/>
<path transform="matrix(.89439 .44729 0 1 0 0)" d="m121.16 110.77h9.336v10.253h-9.336z" fill="#593d29" stroke-width="0"/>
<path transform="matrix(.89439 .44729 0 1 0 0)" d="m121.16 121.02h9.336v10.253h-9.336z" fill="#b9855c" stroke-width="0"/>
<path transform="matrix(.89439 .44729 0 1 0 0)" d="m121.16 131.27h9.336v10.253h-9.336z" fill="#966c4a" stroke-width="0"/>
<path transform="matrix(.89439 .44729 0 1 0 0)" d="m121.16 141.53h9.336v10.253h-9.336z" fill="#79553a" stroke-width="0"/>
<path transform="matrix(.89439 .44729 0 1 0 0)" d="m121.16 151.78h9.336v10.253h-9.336z" fill="#79553a" stroke-width="0"/>
<path transform="matrix(.89439 .44729 0 1 0 0)" d="m121.16 162.03h9.336v10.253h-9.336z" fill="#593d29" stroke-width="0"/>
<path transform="matrix(.89439 .44729 0 1 0 0)" d="m121.16 172.28h9.336v10.253h-9.336z" fill="#79553a" stroke-width="0"/>
<path transform="matrix(.89439 .44729 0 1 0 0)" d="m121.16 182.54h9.336v10.253h-9.336z" fill="#79553a" stroke-width="0"/>
<path transform="matrix(.89439 .44729 0 1 0 0)" d="m121.16 192.79h9.336v10.253h-9.336z" fill="#593d29" stroke-width="0"/>
<path transform="matrix(.89439 .44729 0 1 0 0)" d="m121.16 203.04h9.336v10.253h-9.336z" fill="#966c4a" stroke-width="0"/>
<path transform="matrix(.89439 .44729 0 1 0 0)" d="m121.16 213.3h9.336v10.253h-9.336z" fill="#79553a" stroke-width="0"/>
<path transform="matrix(.89439 .44729 0 1 0 0)" d="m130.5 59.505h9.336v10.253h-9.336z" fill="#57844b" stroke-width="0"/>
<path transform="matrix(.89439 .44729 0 1 0 0)" d="m130.5 69.757h9.336v10.253h-9.336z" fill="#527d47" stroke-width="0"/>
<path transform="matrix(.89439 .44729 0 1 0 0)" d="m130.5 80.01h9.336v10.253h-9.336z" fill="#593d29" stroke-width="0"/>
<path transform="matrix(.89439 .44729 0 1 0 0)" d="m130.5 90.263h9.336v10.253h-9.336z" fill="#79553a" stroke-width="0"/>
<path transform="matrix(.89439 .44729 0 1 0 0)" d="m130.5 100.52h9.336v10.253h-9.336z" fill="#79553a" stroke-width="0"/>
<path transform="matrix(.89439 .44729 0 1 0 0)" d="m130.5 110.77h9.336v10.253h-9.336z" fill="#79553a" stroke-width="0"/>
<path transform="matrix(.89439 .44729 0 1 0 0)" d="m130.5 121.02h9.336v10.253h-9.336z" fill="#79553a" stroke-width="0"/>
<path transform="matrix(.89439 .44729 0 1 0 0)" d="m130.5 131.27h9.336v10.253h-9.336z" fill="#79553a" stroke-width="0"/>
<path transform="matrix(.89439 .44729 0 1 0 0)" d="m130.5 141.53h9.336v10.253h-9.336z" fill="#79553a" stroke-width="0"/>
<path transform="matrix(.89439 .44729 0 1 0 0)" d="m130.5 151.78h9.336v10.253h-9.336z" fill="#b9855c" stroke-width="0"/>
<path transform="matrix(.89439 .44729 0 1 0 0)" d="m130.5 162.03h9.336v10.253h-9.336z" fill="#966c4a" stroke-width="0"/>
<path transform="matrix(.89439 .44729 0 1 0 0)" d="m130.5 172.28h9.336v10.253h-9.336z" fill="#593d29" stroke-width="0"/>
<path transform="matrix(.89439 .44729 0 1 0 0)" d="m130.5 182.54h9.336v10.253h-9.336z" fill="#79553a" stroke-width="0"/>
<path transform="matrix(.89439 .44729 0 1 0 0)" d="m130.5 192.79h9.336v10.253h-9.336z" fill="#79553a" stroke-width="0"/>
<path transform="matrix(.89439 .44729 0 1 0 0)" d="m130.5 203.04h9.336v10.253h-9.336z" fill="#79553a" stroke-width="0"/>
<path transform="matrix(.89439 .44729 0 1 0 0)" d="m130.5 213.3h9.336v10.253h-9.336z" fill="#966c4a" stroke-width="0"/>
<path transform="matrix(.89439 .44729 0 1 0 0)" d="m139.84 59.505h9.336v10.253h-9.336z" fill="#3f6036" stroke-width="0"/>
<path transform="matrix(.89439 .44729 0 1 0 0)" d="m139.84 69.757h9.336v10.253h-9.336z" fill="#44683b" stroke-width="0"/>
<path transform="matrix(.89439 .44729 0 1 0 0)" d="m139.84 80.01h9.336v10.253h-9.336z" fill="#3a5832" stroke-width="0"/>
<path transform="matrix(.89439 .44729 0 1 0 0)" d="m139.84 90.263h9.336v10.253h-9.336z" fill="#593d29" stroke-width="0"/>
<path transform="matrix(.89439 .44729 0 1 0 0)" d="m139.84 100.52h9.336v10.253h-9.336z" fill="#966c4a" stroke-width="0"/>
<path transform="matrix(.89439 .44729 0 1 0 0)" d="m139.84 110.77h9.336v10.253h-9.336z" fill="#79553a" stroke-width="0"/>
<path transform="matrix(.89439 .44729 0 1 0 0)" d="m139.84 121.02h9.336v10.253h-9.336z" fill="#966c4a" stroke-width="0"/>
<path transform="matrix(.89439 .44729 0 1 0 0)" d="m139.84 131.27h9.336v10.253h-9.336z" fill="#79553a" stroke-width="0"/>
<path transform="matrix(.89439 .44729 0 1 0 0)" d="m139.84 141.53h9.336v10.253h-9.336z" fill="#79553a" stroke-width="0"/>
<path transform="matrix(.89439 .44729 0 1 0 0)" d="m139.84 151.78h9.336v10.253h-9.336z" fill="#b9855c" stroke-width="0"/>
<path transform="matrix(.89439 .44729 0 1 0 0)" d="m139.84 162.03h9.336v10.253h-9.336z" fill="#966c4a" stroke-width="0"/>
<path transform="matrix(.89439 .44729 0 1 0 0)" d="m139.84 172.28h9.336v10.253h-9.336z" fill="#966c4a" stroke-width="0"/>
<path transform="matrix(.89439 .44729 0 1 0 0)" d="m139.84 182.54h9.336v10.253h-9.336z" fill="#79553a" stroke-width="0"/>
<path transform="matrix(.89439 .44729 0 1 0 0)" d="m139.84 192.79h9.336v10.253h-9.336z" fill="#b9855c" stroke-width="0"/>
<path transform="matrix(.89439 .44729 0 1 0 0)" d="m139.84 203.04h9.336v10.253h-9.336z" fill="#79553a" stroke-width="0"/>
<path transform="matrix(.89439 .44729 0 1 0 0)" d="m139.84 213.3h9.336v10.253h-9.336z" fill="#966c4a" stroke-width="0"/>
<path transform="matrix(.89439 .44729 0 1 0 0)" d="m149.17 59.505h9.336v10.253h-9.336z" fill="#4d7643" stroke-width="0"/>
<path transform="matrix(.89439 .44729 0 1 0 0)" d="m149.17 69.757h9.336v10.253h-9.336z" fill="#527d47" stroke-width="0"/>
<path transform="matrix(.89439 .44729 0 1 0 0)" d="m149.17 80.01h9.336v10.253h-9.336z" fill="#496f3f" stroke-width="0"/>
<path transform="matrix(.89439 .44729 0 1 0 0)" d="m149.17 90.263h9.336v10.253h-9.336z" fill="#593d29" stroke-width="0"/>
<path transform="matrix(.89439 .44729 0 1 0 0)" d="m149.17 100.52h9.336v10.253h-9.336z" fill="#593d29" stroke-width="0"/>
<path transform="matrix(.89439 .44729 0 1 0 0)" d="m149.17 110.77h9.336v10.253h-9.336z" fill="#79553a" stroke-width="0"/>
<path transform="matrix(.89439 .44729 0 1 0 0)" d="m149.17 121.02h9.336v10.253h-9.336z" fill="#79553a" stroke-width="0"/>
<path transform="matrix(.89439 .44729 0 1 0 0)" d="m149.17 131.27h9.336v10.253h-9.336z" fill="#966c4a" stroke-width="0"/>
<path transform="matrix(.89439 .44729 0 1 0 0)" d="m149.17 141.53h9.336v10.253h-9.336z" fill="#593d29" stroke-width="0"/>
<path transform="matrix(.89439 .44729 0 1 0 0)" d="m149.17 151.78h9.336v10.253h-9.336z" fill="#79553a" stroke-width="0"/>
<path transform="matrix(.89439 .44729 0 1 0 0)" d="m149.17 162.03h9.336v10.253h-9.336z" fill="#878787" stroke-width="0"/>
<path transform="matrix(.89439 .44729 0 1 0 0)" d="m149.17 172.28h9.336v10.253h-9.336z" fill="#79553a" stroke-width="0"/>
<path transform="matrix(.89439 .44729 0 1 0 0)" d="m149.17 182.54h9.336v10.253h-9.336z" fill="#b9855c" stroke-width="0"/>
<path transform="matrix(.89439 .44729 0 1 0 0)" d="m149.17 192.79h9.336v10.253h-9.336z" fill="#966c4a" stroke-width="0"/>
<path transform="matrix(.89439 .44729 0 1 0 0)" d="m149.17 203.04h9.336v10.253h-9.336z" fill="#966c4a" stroke-width="0"/>
<path transform="matrix(.89439 .44729 0 1 0 0)" d="m149.17 213.3h9.336v10.253h-9.336z" fill="#79553a" stroke-width="0"/>
<path transform="matrix(.89439 .44729 0 1 0 0)" d="m158.51 59.505h9.336v10.253h-9.336z" fill="#496f3f" stroke-width="0"/>
<path transform="matrix(.89439 .44729 0 1 0 0)" d="m158.51 69.757h9.336v10.253h-9.336z" fill="#44673a" stroke-width="0"/>
<path transform="matrix(.89439 .44729 0 1 0 0)" d="m158.51 80.01h9.336v10.253h-9.336z" fill="#593d29" stroke-width="0"/>
<path transform="matrix(.89439 .44729 0 1 0 0)" d="m158.51 90.263h9.336v10.253h-9.336z" fill="#79553a" stroke-width="0"/>
<path transform="matrix(.89439 .44729 0 1 0 0)" d="m158.51 100.52h9.336v10.253h-9.336z" fill="#79553a" stroke-width="0"/>
<path transform="matrix(.89439 .44729 0 1 0 0)" d="m158.51 110.77h9.336v10.253h-9.336z" fill="#b9855c" stroke-width="0"/>
<path transform="matrix(.89439 .44729 0 1 0 0)" d="m158.51 121.02h9.336v10.253h-9.336z" fill="#966c4a" stroke-width="0"/>
<path transform="matrix(.89439 .44729 0 1 0 0)" d="m158.51 131.27h9.336v10.253h-9.336z" fill="#966c4a" stroke-width="0"/>
<path transform="matrix(.89439 .44729 0 1 0 0)" d="m158.51 141.53h9.336v10.253h-9.336z" fill="#79553a" stroke-width="0"/>
<path transform="matrix(.89439 .44729 0 1 0 0)" d="m158.51 151.78h9.336v10.253h-9.336z" fill="#966c4a" stroke-width="0"/>
<path transform="matrix(.89439 .44729 0 1 0 0)" d="m158.51 162.03h9.336v10.253h-9.336z" fill="#79553a" stroke-width="0"/>
<path transform="matrix(.89439 .44729 0 1 0 0)" d="m158.51 172.28h9.336v10.253h-9.336z" fill="#593d29" stroke-width="0"/>
<path transform="matrix(.89439 .44729 0 1 0 0)" d="m158.51 182.54h9.336v10.253h-9.336z" fill="#b9855c" stroke-width="0"/>
<path transform="matrix(.89439 .44729 0 1 0 0)" d="m158.51 192.79h9.336v10.253h-9.336z" fill="#966c4a" stroke-width="0"/>
<path transform="matrix(.89439 .44729 0 1 0 0)" d="m158.51 203.04h9.336v10.253h-9.336z" fill="#966c4a" stroke-width="0"/>
<path transform="matrix(.89439 .44729 0 1 0 0)" d="m158.51 213.3h9.336v10.253h-9.336z" fill="#593d29" stroke-width="0"/>
<path transform="matrix(.89439 -.44729 0 1 0 0)" d="m167.84 209.66h9.336v10.253h-9.336z" fill="#527d47" stroke-width="0"/>
<path transform="matrix(.89439 -.44729 0 1 0 0)" d="m167.84 219.91h9.336v10.253h-9.336z" fill="#527d47" stroke-width="0"/>
<path transform="matrix(.89439 -.44729 0 1 0 0)" d="m167.84 230.16h9.336v10.253h-9.336z" fill="#496f3f" stroke-width="0"/>
<path transform="matrix(.89439 -.44729 0 1 0 0)" d="m167.84 240.41h9.336v10.253h-9.336z" fill="#593d29" stroke-width="0"/>
<path transform="matrix(.89439 -.44729 0 1 0 0)" d="m167.84 250.67h9.336v10.253h-9.336z" fill="#966c4a" stroke-width="0"/>
<path transform="matrix(.89439 -.44729 0 1 0 0)" d="m167.84 260.92h9.336v10.253h-9.336z" fill="#79553a" stroke-width="0"/>
<path transform="matrix(.89439 -.44729 0 1 0 0)" d="m167.84 271.17h9.336v10.253h-9.336z" fill="#b9855c" stroke-width="0"/>
<path transform="matrix(.89439 -.44729 0 1 0 0)" d="m167.84 281.42h9.336v10.253h-9.336z" fill="#79553a" stroke-width="0"/>
<path transform="matrix(.89439 -.44729 0 1 0 0)" d="m167.84 291.68h9.336v10.253h-9.336z" fill="#966c4a" stroke-width="0"/>
<path transform="matrix(.89439 -.44729 0 1 0 0)" d="m167.84 301.93h9.336v10.253h-9.336z" fill="#79553a" stroke-width="0"/>
<path transform="matrix(.89439 -.44729 0 1 0 0)" d="m167.84 312.18h9.336v10.253h-9.336z" fill="#79553a" stroke-width="0"/>
<path transform="matrix(.89439 -.44729 0 1 0 0)" d="m167.84 322.44h9.336v10.253h-9.336z" fill="#966c4a" stroke-width="0"/>
<path transform="matrix(.89439 -.44729 0 1 0 0)" d="m167.84 332.69h9.336v10.253h-9.336z" fill="#79553a" stroke-width="0"/>
<path transform="matrix(.89439 -.44729 0 1 0 0)" d="m167.84 342.94h9.336v10.253h-9.336z" fill="#79553a" stroke-width="0"/>
<path transform="matrix(.89439 -.44729 0 1 0 0)" d="m167.84 353.19h9.336v10.253h-9.336z" fill="#966c4a" stroke-width="0"/>
<path transform="matrix(.89439 -.44729 0 1 0 0)" d="m167.84 363.45h9.336v10.253h-9.336z" fill="#966c4a" stroke-width="0"/>
<path transform="matrix(.89439 -.44729 0 1 0 0)" d="m177.18 209.66h9.336v10.253h-9.336z" fill="#466b3c" stroke-width="0"/>
<path transform="matrix(.89439 -.44729 0 1 0 0)" d="m177.18 219.91h9.336v10.253h-9.336z" fill="#44683b" stroke-width="0"/>
<path transform="matrix(.89439 -.44729 0 1 0 0)" d="m177.18 230.16h9.336v10.253h-9.336z" fill="#593d29" stroke-width="0"/>
<path transform="matrix(.89439 -.44729 0 1 0 0)" d="m177.18 240.41h9.336v10.253h-9.336z" fill="#6c6c6c" stroke-width="0"/>
<path transform="matrix(.89439 -.44729 0 1 0 0)" d="m177.18 250.67h9.336v10.253h-9.336z" fill="#79553a" stroke-width="0"/>
<path transform="matrix(.89439 -.44729 0 1 0 0)" d="m177.18 260.92h9.336v10.253h-9.336z" fill="#593d29" stroke-width="0"/>
<path transform="matrix(.89439 -.44729 0 1 0 0)" d="m177.18 271.17h9.336v10.253h-9.336z" fill="#79553a" stroke-width="0"/>
<path transform="matrix(.89439 -.44729 0 1 0 0)" d="m177.18 281.42h9.336v10.253h-9.336z" fill="#79553a" stroke-width="0"/>
<path transform="matrix(.89439 -.44729 0 1 0 0)" d="m177.18 291.68h9.336v10.253h-9.336z" fill="#79553a" stroke-width="0"/>
<path transform="matrix(.89439 -.44729 0 1 0 0)" d="m177.18 301.93h9.336v10.253h-9.336z" fill="#966c4a" stroke-width="0"/>
<path transform="matrix(.89439 -.44729 0 1 0 0)" d="m177.18 312.18h9.336v10.253h-9.336z" fill="#966c4a" stroke-width="0"/>
<path transform="matrix(.89439 -.44729 0 1 0 0)" d="m177.18 322.44h9.336v10.253h-9.336z" fill="#79553a" stroke-width="0"/>
<path transform="matrix(.89439 -.44729 0 1 0 0)" d="m177.18 332.69h9.336v10.253h-9.336z" fill="#593d29" stroke-width="0"/>
<path transform="matrix(.89439 -.44729 0 1 0 0)" d="m177.18 342.94h9.336v10.253h-9.336z" fill="#966c4a" stroke-width="0"/>
<path transform="matrix(.89439 -.44729 0 1 0 0)" d="m177.18 353.19h9.336v10.253h-9.336z" fill="#79553a" stroke-width="0"/>
<path transform="matrix(.89439 -.44729 0 1 0 0)" d="m177.18 363.45h9.336v10.253h-9.336z" fill="#79553a" stroke-width="0"/>
<path transform="matrix(.89439 -.44729 0 1 0 0)" d="m186.52 209.66h9.336v10.253h-9.336z" fill="#496f3f" stroke-width="0"/>
<path transform="matrix(.89439 -.44729 0 1 0 0)" d="m186.52 219.91h9.336v10.253h-9.336z" fill="#527d47" stroke-width="0"/>
<path transform="matrix(.89439 -.44729 0 1 0 0)" d="m186.52 230.16h9.336v10.253h-9.336z" fill="#57844b" stroke-width="0"/>
<path transform="matrix(.89439 -.44729 0 1 0 0)" d="m186.52 240.41h9.336v10.253h-9.336z" fill="#593d29" stroke-width="0"/>
<path transform="matrix(.89439 -.44729 0 1 0 0)" d="m186.52 250.67h9.336v10.253h-9.336z" fill="#966c4a" stroke-width="0"/>
<path transform="matrix(.89439 -.44729 0 1 0 0)" d="m186.52 260.92h9.336v10.253h-9.336z" fill="#966c4a" stroke-width="0"/>
<path transform="matrix(.89439 -.44729 0 1 0 0)" d="m186.52 271.17h9.336v10.253h-9.336z" fill="#79553a" stroke-width="0"/>
<path transform="matrix(.89439 -.44729 0 1 0 0)" d="m186.52 281.42h9.336v10.253h-9.336z" fill="#b9855c" stroke-width="0"/>
<path transform="matrix(.89439 -.44729 0 1 0 0)" d="m186.52 291.68h9.336v10.253h-9.336z" fill="#79553a" stroke-width="0"/>
<path transform="matrix(.89439 -.44729 0 1 0 0)" d="m186.52 301.93h9.336v10.253h-9.336z" fill="#593d29" stroke-width="0"/>
<path transform="matrix(.89439 -.44729 0 1 0 0)" d="m186.52 312.18h9.336v10.253h-9.336z" fill="#79553a" stroke-width="0"/>
<path transform="matrix(.89439 -.44729 0 1 0 0)" d="m186.52 322.44h9.336v10.253h-9.336z" fill="#79553a" stroke-width="0"/>
<path transform="matrix(.89439 -.44729 0 1 0 0)" d="m186.52 332.69h9.336v10.253h-9.336z" fill="#966c4a" stroke-width="0"/>
<path transform="matrix(.89439 -.44729 0 1 0 0)" d="m186.52 342.94h9.336v10.253h-9.336z" fill="#79553a" stroke-width="0"/>
<path transform="matrix(.89439 -.44729 0 1 0 0)" d="m186.52 353.19h9.336v10.253h-9.336z" fill="#593d29" stroke-width="0"/>
<path transform="matrix(.89439 -.44729 0 1 0 0)" d="m186.52 363.45h9.336v10.253h-9.336z" fill="#b9855c" stroke-width="0"/>
<path transform="matrix(.89439 -.44729 0 1 0 0)" d="m195.85 209.66h9.336v10.253h-9.336z" fill="#44683b" stroke-width="0"/>
<path transform="matrix(.89439 -.44729 0 1 0 0)" d="m195.85 219.91h9.336v10.253h-9.336z" fill="#466b3c" stroke-width="0"/>
<path transform="matrix(.89439 -.44729 0 1 0 0)" d="m195.85 230.16h9.336v10.253h-9.336z" fill="#406237" stroke-width="0"/>
<path transform="matrix(.89439 -.44729 0 1 0 0)" d="m195.85 240.41h9.336v10.253h-9.336z" fill="#593d29" stroke-width="0"/>
<path transform="matrix(.89439 -.44729 0 1 0 0)" d="m195.85 250.67h9.336v10.253h-9.336z" fill="#b9855c" stroke-width="0"/>
<path transform="matrix(.89439 -.44729 0 1 0 0)" d="m195.85 260.92h9.336v10.253h-9.336z" fill="#966c4a" stroke-width="0"/>
<path transform="matrix(.89439 -.44729 0 1 0 0)" d="m195.85 271.17h9.336v10.253h-9.336z" fill="#79553a" stroke-width="0"/>
<path transform="matrix(.89439 -.44729 0 1 0 0)" d="m195.85 281.42h9.336v10.253h-9.336z" fill="#b9855c" stroke-width="0"/>
<path transform="matrix(.89439 -.44729 0 1 0 0)" d="m195.85 291.68h9.336v10.253h-9.336z" fill="#966c4a" stroke-width="0"/>
<path transform="matrix(.89439 -.44729 0 1 0 0)" d="m195.85 301.93h9.336v10.253h-9.336z" fill="#79553a" stroke-width="0"/>
<path transform="matrix(.89439 -.44729 0 1 0 0)" d="m195.85 312.18h9.336v10.253h-9.336z" fill="#b9855c" stroke-width="0"/>
<path transform="matrix(.89439 -.44729 0 1 0 0)" d="m195.85 322.44h9.336v10.253h-9.336z" fill="#966c4a" stroke-width="0"/>
<path transform="matrix(.89439 -.44729 0 1 0 0)" d="m195.85 332.69h9.336v10.253h-9.336z" fill="#79553a" stroke-width="0"/>
<path transform="matrix(.89439 -.44729 0 1 0 0)" d="m195.85 342.94h9.336v10.253h-9.336z" fill="#79553a" stroke-width="0"/>
<path transform="matrix(.89439 -.44729 0 1 0 0)" d="m195.85 353.19h9.336v10.253h-9.336z" fill="#b9855c" stroke-width="0"/>
<path transform="matrix(.89439 -.44729 0 1 0 0)" d="m195.85 363.45h9.336v10.253h-9.336z" fill="#966c4a" stroke-width="0"/>
<path transform="matrix(.89439 -.44729 0 1 0 0)" d="m205.19 209.66h9.336v10.253h-9.336z" fill="#527d47" stroke-width="0"/>
<path transform="matrix(.89439 -.44729 0 1 0 0)" d="m205.19 219.91h9.336v10.253h-9.336z" fill="#57844b" stroke-width="0"/>
<path transform="matrix(.89439 -.44729 0 1 0 0)" d="m205.19 230.16h9.336v10.253h-9.336z" fill="#527d47" stroke-width="0"/>
<path transform="matrix(.89439 -.44729 0 1 0 0)" d="m205.19 240.41h9.336v10.253h-9.336z" fill="#476b3d" stroke-width="0"/>
<path transform="matrix(.89439 -.44729 0 1 0 0)" d="m205.19 250.67h9.336v10.253h-9.336z" fill="#593d29" stroke-width="0"/>
<path transform="matrix(.89439 -.44729 0 1 0 0)" d="m205.19 260.92h9.336v10.253h-9.336z" fill="#79553a" stroke-width="0"/>
<path transform="matrix(.89439 -.44729 0 1 0 0)" d="m205.19 271.17h9.336v10.253h-9.336z" fill="#878787" stroke-width="0"/>
<path transform="matrix(.89439 -.44729 0 1 0 0)" d="m205.19 281.42h9.336v10.253h-9.336z" fill="#966c4a" stroke-width="0"/>
<path transform="matrix(.89439 -.44729 0 1 0 0)" d="m205.19 291.68h9.336v10.253h-9.336z" fill="#79553a" stroke-width="0"/>
<path transform="matrix(.89439 -.44729 0 1 0 0)" d="m205.19 301.93h9.336v10.253h-9.336z" fill="#79553a" stroke-width="0"/>
<path transform="matrix(.89439 -.44729 0 1 0 0)" d="m205.19 312.18h9.336v10.253h-9.336z" fill="#b9855c" stroke-width="0"/>
<path transform="matrix(.89439 -.44729 0 1 0 0)" d="m205.19 322.44h9.336v10.253h-9.336z" fill="#966c4a" stroke-width="0"/>
<path transform="matrix(.89439 -.44729 0 1 0 0)" d="m205.19 332.69h9.336v10.253h-9.336z" fill="#966c4a" stroke-width="0"/>
<path transform="matrix(.89439 -.44729 0 1 0 0)" d="m205.19 342.94h9.336v10.253h-9.336z" fill="#745844" stroke-width="0"/>
<path transform="matrix(.89439 -.44729 0 1 0 0)" d="m205.19 353.19h9.336v10.253h-9.336z" fill="#79553a" stroke-width="0"/>
<path transform="matrix(.89439 -.44729 0 1 0 0)" d="m205.19 363.45h9.336v10.253h-9.336z" fill="#966c4a" stroke-width="0"/>
<path transform="matrix(.89439 -.44729 0 1 0 0)" d="m214.52 209.66h9.336v10.253h-9.336z" fill="#466b3c" stroke-width="0"/>
<path transform="matrix(.89439 -.44729 0 1 0 0)" d="m214.52 219.91h9.336v10.253h-9.336z" fill="#593d29" stroke-width="0"/>
<path transform="matrix(.89439 -.44729 0 1 0 0)" d="m214.52 230.16h9.336v10.253h-9.336z" fill="#593d29" stroke-width="0"/>
<path transform="matrix(.89439 -.44729 0 1 0 0)" d="m214.52 240.41h9.336v10.253h-9.336z" fill="#593d29" stroke-width="0"/>
<path transform="matrix(.89439 -.44729 0 1 0 0)" d="m214.52 250.67h9.336v10.253h-9.336z" fill="#966c4a" stroke-width="0"/>
<path transform="matrix(.89439 -.44729 0 1 0 0)" d="m214.52 260.92h9.336v10.253h-9.336z" fill="#966c4a" stroke-width="0"/>
<path transform="matrix(.89439 -.44729 0 1 0 0)" d="m214.52 271.17h9.336v10.253h-9.336z" fill="#79553a" stroke-width="0"/>
<path transform="matrix(.89439 -.44729 0 1 0 0)" d="m214.52 281.42h9.336v10.253h-9.336z" fill="#966c4a" stroke-width="0"/>
<path transform="matrix(.89439 -.44729 0 1 0 0)" d="m214.52 291.68h9.336v10.253h-9.336z" fill="#966c4a" stroke-width="0"/>
<path transform="matrix(.89439 -.44729 0 1 0 0)" d="m214.52 301.93h9.336v10.253h-9.336z" fill="#593d29" stroke-width="0"/>
<path transform="matrix(.89439 -.44729 0 1 0 0)" d="m214.52 312.18h9.336v10.253h-9.336z" fill="#79553a" stroke-width="0"/>
<path transform="matrix(.89439 -.44729 0 1 0 0)" d="m214.52 322.44h9.336v10.253h-9.336z" fill="#b9855c" stroke-width="0"/>
<path transform="matrix(.89439 -.44729 0 1 0 0)" d="m214.52 332.69h9.336v10.253h-9.336z" fill="#966c4a" stroke-width="0"/>
<path transform="matrix(.89439 -.44729 0 1 0 0)" d="m214.52 342.94h9.336v10.253h-9.336z" fill="#79553a" stroke-width="0"/>
<path transform="matrix(.89439 -.44729 0 1 0 0)" d="m214.52 353.19h9.336v10.253h-9.336z" fill="#593d29" stroke-width="0"/>
<path transform="matrix(.89439 -.44729 0 1 0 0)" d="m214.52 363.45h9.336v10.253h-9.336z" fill="#79553a" stroke-width="0"/>
<path transform="matrix(.89439 -.44729 0 1 0 0)" d="m223.86 209.66h9.336v10.253h-9.336z" fill="#527d47" stroke-width="0"/>
<path transform="matrix(.89439 -.44729 0 1 0 0)" d="m223.86 219.91h9.336v10.253h-9.336z" fill="#527d47" stroke-width="0"/>
<path transform="matrix(.89439 -.44729 0 1 0 0)" d="m223.86 230.16h9.336v10.253h-9.336z" fill="#466b3c" stroke-width="0"/>
<path transform="matrix(.89439 -.44729 0 1 0 0)" d="m223.86 240.41h9.336v10.253h-9.336z" fill="#593d29" stroke-width="0"/>
<path transform="matrix(.89439 -.44729 0 1 0 0)" d="m223.86 250.67h9.336v10.253h-9.336z" fill="#79553a" stroke-width="0"/>
<path transform="matrix(.89439 -.44729 0 1 0 0)" d="m223.86 260.92h9.336v10.253h-9.336z" fill="#593d29" stroke-width="0"/>
<path transform="matrix(.89439 -.44729 0 1 0 0)" d="m223.86 271.17h9.336v10.253h-9.336z" fill="#79553a" stroke-width="0"/>
<path transform="matrix(.89439 -.44729 0 1 0 0)" d="m223.86 281.42h9.336v10.253h-9.336z" fill="#79553a" stroke-width="0"/>
<path transform="matrix(.89439 -.44729 0 1 0 0)" d="m223.86 291.68h9.336v10.253h-9.336z" fill="#79553a" stroke-width="0"/>
<path transform="matrix(.89439 -.44729 0 1 0 0)" d="m223.86 301.93h9.336v10.253h-9.336z" fill="#593d29" stroke-width="0"/>
<path transform="matrix(.89439 -.44729 0 1 0 0)" d="m223.86 312.18h9.336v10.253h-9.336z" fill="#b9855c" stroke-width="0"/>
<path transform="matrix(.89439 -.44729 0 1 0 0)" d="m223.86 322.44h9.336v10.253h-9.336z" fill="#79553a" stroke-width="0"/>
<path transform="matrix(.89439 -.44729 0 1 0 0)" d="m223.86 332.69h9.336v10.253h-9.336z" fill="#b9855c" stroke-width="0"/>
<path transform="matrix(.89439 -.44729 0 1 0 0)" d="m223.86 342.94h9.336v10.253h-9.336z" fill="#966c4a" stroke-width="0"/>
<path transform="matrix(.89439 -.44729 0 1 0 0)" d="m223.86 353.19h9.336v10.253h-9.336z" fill="#79553a" stroke-width="0"/>
<path transform="matrix(.89439 -.44729 0 1 0 0)" d="m223.86 363.45h9.336v10.253h-9.336z" fill="#878787" stroke-width="0"/>
<path transform="matrix(.89439 -.44729 0 1 0 0)" d="m233.2 209.66h9.336v10.253h-9.336z" fill="#496f3f" stroke-width="0"/>
<path transform="matrix(.89439 -.44729 0 1 0 0)" d="m233.2 219.91h9.336v10.253h-9.336z" fill="#3f6037" stroke-width="0"/>
<path transform="matrix(.89439 -.44729 0 1 0 0)" d="m233.2 230.16h9.336v10.253h-9.336z" fill="#593d29" stroke-width="0"/>
<path transform="matrix(.89439 -.44729 0 1 0 0)" d="m233.2 240.41h9.336v10.253h-9.336z" fill="#593d29" stroke-width="0"/>
<path transform="matrix(.89439 -.44729 0 1 0 0)" d="m233.2 250.67h9.336v10.253h-9.336z" fill="#79553a" stroke-width="0"/>
<path transform="matrix(.89439 -.44729 0 1 0 0)" d="m233.2 260.92h9.336v10.253h-9.336z" fill="#593d29" stroke-width="0"/>
<path transform="matrix(.89439 -.44729 0 1 0 0)" d="m233.2 271.17h9.336v10.253h-9.336z" fill="#b9855c" stroke-width="0"/>
<path transform="matrix(.89439 -.44729 0 1 0 0)" d="m233.2 281.42h9.336v10.253h-9.336z" fill="#79553a" stroke-width="0"/>
<path transform="matrix(.89439 -.44729 0 1 0 0)" d="m233.2 291.68h9.336v10.253h-9.336z" fill="#593d29" stroke-width="0"/>
<path transform="matrix(.89439 -.44729 0 1 0 0)" d="m233.2 301.93h9.336v10.253h-9.336z" fill="#79553a" stroke-width="0"/>
<path transform="matrix(.89439 -.44729 0 1 0 0)" d="m233.2 312.18h9.336v10.253h-9.336z" fill="#966c4a" stroke-width="0"/>
<path transform="matrix(.89439 -.44729 0 1 0 0)" d="m233.2 322.44h9.336v10.253h-9.336z" fill="#966c4a" stroke-width="0"/>
<path transform="matrix(.89439 -.44729 0 1 0 0)" d="m233.2 332.69h9.336v10.253h-9.336z" fill="#79553a" stroke-width="0"/>
<path transform="matrix(.89439 -.44729 0 1 0 0)" d="m233.2 342.94h9.336v10.253h-9.336z" fill="#966c4a" stroke-width="0"/>
<path transform="matrix(.89439 -.44729 0 1 0 0)" d="m233.2 353.19h9.336v10.253h-9.336z" fill="#593d29" stroke-width="0"/>
<path transform="matrix(.89439 -.44729 0 1 0 0)" d="m233.2 363.45h9.336v10.253h-9.336z" fill="#79553a" stroke-width="0"/>
<path transform="matrix(.89439 -.44729 0 1 0 0)" d="m242.53 209.66h9.336v10.253h-9.336z" fill="#496f3f" stroke-width="0"/>
<path transform="matrix(.89439 -.44729 0 1 0 0)" d="m242.53 219.91h9.336v10.253h-9.336z" fill="#57844b" stroke-width="0"/>
<path transform="matrix(.89439 -.44729 0 1 0 0)" d="m242.53 230.16h9.336v10.253h-9.336z" fill="#527d47" stroke-width="0"/>
<path transform="matrix(.89439 -.44729 0 1 0 0)" d="m242.53 240.41h9.336v10.253h-9.336z" fill="#3e5e35" stroke-width="0"/>
<path transform="matrix(.89439 -.44729 0 1 0 0)" d="m242.53 250.67h9.336v10.253h-9.336z" fill="#593d29" stroke-width="0"/>
<path transform="matrix(.89439 -.44729 0 1 0 0)" d="m242.53 260.92h9.336v10.253h-9.336z" fill="#593d29" stroke-width="0"/>
<path transform="matrix(.89439 -.44729 0 1 0 0)" d="m242.53 271.17h9.336v10.253h-9.336z" fill="#b9855c" stroke-width="0"/>
<path transform="matrix(.89439 -.44729 0 1 0 0)" d="m242.53 281.42h9.336v10.253h-9.336z" fill="#966c4a" stroke-width="0"/>
<path transform="matrix(.89439 -.44729 0 1 0 0)" d="m242.53 291.68h9.336v10.253h-9.336z" fill="#79553a" stroke-width="0"/>
<path transform="matrix(.89439 -.44729 0 1 0 0)" d="m242.53 301.93h9.336v10.253h-9.336z" fill="#79553a" stroke-width="0"/>
<path transform="matrix(.89439 -.44729 0 1 0 0)" d="m242.53 312.18h9.336v10.253h-9.336z" fill="#593d29" stroke-width="0"/>
<path transform="matrix(.89439 -.44729 0 1 0 0)" d="m242.53 322.44h9.336v10.253h-9.336z" fill="#6c6c6c" stroke-width="0"/>
<path transform="matrix(.89439 -.44729 0 1 0 0)" d="m242.53 332.69h9.336v10.253h-9.336z" fill="#79553a" stroke-width="0"/>
<path transform="matrix(.89439 -.44729 0 1 0 0)" d="m242.53 342.94h9.336v10.253h-9.336z" fill="#79553a" stroke-width="0"/>
<path transform="matrix(.89439 -.44729 0 1 0 0)" d="m242.53 353.19h9.336v10.253h-9.336z" fill="#b9855c" stroke-width="0"/>
<path transform="matrix(.89439 -.44729 0 1 0 0)" d="m242.53 363.45h9.336v10.253h-9.336z" fill="#966c4a" stroke-width="0"/>
<path transform="matrix(.89439 -.44729 0 1 0 0)" d="m251.87 209.66h9.336v10.253h-9.336z" fill="#4d7643" stroke-width="0"/>
<path transform="matrix(.89439 -.44729 0 1 0 0)" d="m251.87 219.91h9.336v10.253h-9.336z" fill="#496f3f" stroke-width="0"/>
<path transform="matrix(.89439 -.44729 0 1 0 0)" d="m251.87 230.16h9.336v10.253h-9.336z" fill="#4d7643" stroke-width="0"/>
<path transform="matrix(.89439 -.44729 0 1 0 0)" d="m251.87 240.41h9.336v10.253h-9.336z" fill="#593d29" stroke-width="0"/>
<path transform="matrix(.89439 -.44729 0 1 0 0)" d="m251.87 250.67h9.336v10.253h-9.336z" fill="#593d29" stroke-width="0"/>
<path transform="matrix(.89439 -.44729 0 1 0 0)" d="m251.87 260.92h9.336v10.253h-9.336z" fill="#79553a" stroke-width="0"/>
<path transform="matrix(.89439 -.44729 0 1 0 0)" d="m251.87 271.17h9.336v10.253h-9.336z" fill="#79553a" stroke-width="0"/>
<path transform="matrix(.89439 -.44729 0 1 0 0)" d="m251.87 281.42h9.336v10.253h-9.336z" fill="#593d29" stroke-width="0"/>
<path transform="matrix(.89439 -.44729 0 1 0 0)" d="m251.87 291.68h9.336v10.253h-9.336z" fill="#966c4a" stroke-width="0"/>
<path transform="matrix(.89439 -.44729 0 1 0 0)" d="m251.87 301.93h9.336v10.253h-9.336z" fill="#79553a" stroke-width="0"/>
<path transform="matrix(.89439 -.44729 0 1 0 0)" d="m251.87 312.18h9.336v10.253h-9.336z" fill="#b9855c" stroke-width="0"/>
<path transform="matrix(.89439 -.44729 0 1 0 0)" d="m251.87 322.44h9.336v10.253h-9.336z" fill="#966c4a" stroke-width="0"/>
<path transform="matrix(.89439 -.44729 0 1 0 0)" d="m251.87 332.69h9.336v10.253h-9.336z" fill="#79553a" stroke-width="0"/>
<path transform="matrix(.89439 -.44729 0 1 0 0)" d="m251.87 342.94h9.336v10.253h-9.336z" fill="#593d29" stroke-width="0"/>
<path transform="matrix(.89439 -.44729 0 1 0 0)" d="m251.87 353.19h9.336v10.253h-9.336z" fill="#b9855c" stroke-width="0"/>
<path transform="matrix(.89439 -.44729 0 1 0 0)" d="m251.87 363.45h9.336v10.253h-9.336z" fill="#966c4a" stroke-width="0"/>
<path transform="matrix(.89439 -.44729 0 1 0 0)" d="m261.2 209.66h9.336v10.253h-9.336z" fill="#527d47" stroke-width="0"/>
<path transform="matrix(.89439 -.44729 0 1 0 0)" d="m261.2 219.91h9.336v10.253h-9.336z" fill="#527d47" stroke-width="0"/>
<path transform="matrix(.89439 -.44729 0 1 0 0)" d="m261.2 230.16h9.336v10.253h-9.336z" fill="#496f3f" stroke-width="0"/>
<path transform="matrix(.89439 -.44729 0 1 0 0)" d="m261.2 240.41h9.336v10.253h-9.336z" fill="#45693b" stroke-width="0"/>
<path transform="matrix(.89439 -.44729 0 1 0 0)" d="m261.2 250.67h9.336v10.253h-9.336z" fill="#593d29" stroke-width="0"/>
<path transform="matrix(.89439 -.44729 0 1 0 0)" d="m261.2 260.92h9.336v10.253h-9.336z" fill="#79553a" stroke-width="0"/>
<path transform="matrix(.89439 -.44729 0 1 0 0)" d="m261.2 271.17h9.336v10.253h-9.336z" fill="#b9855c" stroke-width="0"/>
<path transform="matrix(.89439 -.44729 0 1 0 0)" d="m261.2 281.42h9.336v10.253h-9.336z" fill="#966c4a" stroke-width="0"/>
<path transform="matrix(.89439 -.44729 0 1 0 0)" d="m261.2 291.68h9.336v10.253h-9.336z" fill="#966c4a" stroke-width="0"/>
<path transform="matrix(.89439 -.44729 0 1 0 0)" d="m261.2 301.93h9.336v10.253h-9.336z" fill="#79553a" stroke-width="0"/>
<path transform="matrix(.89439 -.44729 0 1 0 0)" d="m261.2 312.18h9.336v10.253h-9.336z" fill="#b9855c" stroke-width="0"/>
<path transform="matrix(.89439 -.44729 0 1 0 0)" d="m261.2 322.44h9.336v10.253h-9.336z" fill="#966c4a" stroke-width="0"/>
<path transform="matrix(.89439 -.44729 0 1 0 0)" d="m261.2 332.69h9.336v10.253h-9.336z" fill="#79553a" stroke-width="0"/>
<path transform="matrix(.89439 -.44729 0 1 0 0)" d="m261.2 342.94h9.336v10.253h-9.336z" fill="#b9855c" stroke-width="0"/>
<path transform="matrix(.89439 -.44729 0 1 0 0)" d="m261.2 353.19h9.336v10.253h-9.336z" fill="#79553a" stroke-width="0"/>
<path transform="matrix(.89439 -.44729 0 1 0 0)" d="m261.2 363.45h9.336v10.253h-9.336z" fill="#79553a" stroke-width="0"/>
<path transform="matrix(.89439 -.44729 0 1 0 0)" d="m270.54 209.66h9.336v10.253h-9.336z" fill="#4d7643" stroke-width="0"/>
<path transform="matrix(.89439 -.44729 0 1 0 0)" d="m270.54 219.91h9.336v10.253h-9.336z" fill="#476d3e" stroke-width="0"/>
<path transform="matrix(.89439 -.44729 0 1 0 0)" d="m270.54 230.16h9.336v10.253h-9.336z" fill="#548049" stroke-width="0"/>
<path transform="matrix(.89439 -.44729 0 1 0 0)" d="m270.54 240.41h9.336v10.253h-9.336z" fill="#593d29" stroke-width="0"/>
<path transform="matrix(.89439 -.44729 0 1 0 0)" d="m270.54 250.67h9.336v10.253h-9.336z" fill="#6c6c6c" stroke-width="0"/>
<path transform="matrix(.89439 -.44729 0 1 0 0)" d="m270.54 260.92h9.336v10.253h-9.336z" fill="#593d29" stroke-width="0"/>
<path transform="matrix(.89439 -.44729 0 1 0 0)" d="m270.54 271.17h9.336v10.253h-9.336z" fill="#b9855c" stroke-width="0"/>
<path transform="matrix(.89439 -.44729 0 1 0 0)" d="m270.54 281.42h9.336v10.253h-9.336z" fill="#966c4a" stroke-width="0"/>
<path transform="matrix(.89439 -.44729 0 1 0 0)" d="m270.54 291.68h9.336v10.253h-9.336z" fill="#79553a" stroke-width="0"/>
<path transform="matrix(.89439 -.44729 0 1 0 0)" d="m270.54 301.93h9.336v10.253h-9.336z" fill="#79553a" stroke-width="0"/>
<path transform="matrix(.89439 -.44729 0 1 0 0)" d="m270.54 312.18h9.336v10.253h-9.336z" fill="#593d29" stroke-width="0"/>
<path transform="matrix(.89439 -.44729 0 1 0 0)" d="m270.54 322.44h9.336v10.253h-9.336z" fill="#79553a" stroke-width="0"/>
<path transform="matrix(.89439 -.44729 0 1 0 0)" d="m270.54 332.69h9.336v10.253h-9.336z" fill="#79553a" stroke-width="0"/>
<path transform="matrix(.89439 -.44729 0 1 0 0)" d="m270.54 342.94h9.336v10.253h-9.336z" fill="#593d29" stroke-width="0"/>
<path transform="matrix(.89439 -.44729 0 1 0 0)" d="m270.54 353.19h9.336v10.253h-9.336z" fill="#966c4a" stroke-width="0"/>
<path transform="matrix(.89439 -.44729 0 1 0 0)" d="m270.54 363.45h9.336v10.253h-9.336z" fill="#79553a" stroke-width="0"/>
<path transform="matrix(.89439 -.44729 0 1 0 0)" d="m279.88 209.66h9.336v10.253h-9.336z" fill="#57844b" stroke-width="0"/>
<path transform="matrix(.89439 -.44729 0 1 0 0)" d="m279.88 219.91h9.336v10.253h-9.336z" fill="#527d47" stroke-width="0"/>
<path transform="matrix(.89439 -.44729 0 1 0 0)" d="m279.88 230.16h9.336v10.253h-9.336z" fill="#593d29" stroke-width="0"/>
<path transform="matrix(.89439 -.44729 0 1 0 0)" d="m279.88 240.41h9.336v10.253h-9.336z" fill="#79553a" stroke-width="0"/>
<path transform="matrix(.89439 -.44729 0 1 0 0)" d="m279.88 250.67h9.336v10.253h-9.336z" fill="#79553a" stroke-width="0"/>
<path transform="matrix(.89439 -.44729 0 1 0 0)" d="m279.88 260.92h9.336v10.253h-9.336z" fill="#79553a" stroke-width="0"/>
<path transform="matrix(.89439 -.44729 0 1 0 0)" d="m279.88 271.17h9.336v10.253h-9.336z" fill="#79553a" stroke-width="0"/>
<path transform="matrix(.89439 -.44729 0 1 0 0)" d="m279.88 281.42h9.336v10.253h-9.336z" fill="#79553a" stroke-width="0"/>
<path transform="matrix(.89439 -.44729 0 1 0 0)" d="m279.88 291.68h9.336v10.253h-9.336z" fill="#79553a" stroke-width="0"/>
<path transform="matrix(.89439 -.44729 0 1 0 0)" d="m279.88 301.93h9.336v10.253h-9.336z" fill="#b9855c" stroke-width="0"/>
<path transform="matrix(.89439 -.44729 0 1 0 0)" d="m279.88 312.18h9.336v10.253h-9.336z" fill="#966c4a" stroke-width="0"/>
<path transform="matrix(.89439 -.44729 0 1 0 0)" d="m279.88 322.44h9.336v10.253h-9.336z" fill="#593d29" stroke-width="0"/>
<path transform="matrix(.89439 -.44729 0 1 0 0)" d="m279.88 332.69h9.336v10.253h-9.336z" fill="#79553a" stroke-width="0"/>
<path transform="matrix(.89439 -.44729 0 1 0 0)" d="m279.88 342.94h9.336v10.253h-9.336z" fill="#79553a" stroke-width="0"/>
<path transform="matrix(.89439 -.44729 0 1 0 0)" d="m279.88 353.19h9.336v10.253h-9.336z" fill="#79553a" stroke-width="0"/>
<path transform="matrix(.89439 -.44729 0 1 0 0)" d="m279.88 363.45h9.336v10.253h-9.336z" fill="#966c4a" stroke-width="0"/>
<path transform="matrix(.89439 -.44729 0 1 0 0)" d="m289.21 209.66h9.336v10.253h-9.336z" fill="#3f6036" stroke-width="0"/>
<path transform="matrix(.89439 -.44729 0 1 0 0)" d="m289.21 219.91h9.336v10.253h-9.336z" fill="#44683b" stroke-width="0"/>
<path transform="matrix(.89439 -.44729 0 1 0 0)" d="m289.21 230.16h9.336v10.253h-9.336z" fill="#3a5832" stroke-width="0"/>
<path transform="matrix(.89439 -.44729 0 1 0 0)" d="m289.21 240.41h9.336v10.253h-9.336z" fill="#593d29" stroke-width="0"/>
<path transform="matrix(.89439 -.44729 0 1 0 0)" d="m289.21 250.67h9.336v10.253h-9.336z" fill="#966c4a" stroke-width="0"/>
<path transform="matrix(.89439 -.44729 0 1 0 0)" d="m289.21 260.92h9.336v10.253h-9.336z" fill="#79553a" stroke-width="0"/>
<path transform="matrix(.89439 -.44729 0 1 0 0)" d="m289.21 271.17h9.336v10.253h-9.336z" fill="#966c4a" stroke-width="0"/>
<path transform="matrix(.89439 -.44729 0 1 0 0)" d="m289.21 281.42h9.336v10.253h-9.336z" fill="#79553a" stroke-width="0"/>
<path transform="matrix(.89439 -.44729 0 1 0 0)" d="m289.21 291.68h9.336v10.253h-9.336z" fill="#79553a" stroke-width="0"/>
<path transform="matrix(.89439 -.44729 0 1 0 0)" d="m289.21 301.93h9.336v10.253h-9.336z" fill="#b9855c" stroke-width="0"/>
<path transform="matrix(.89439 -.44729 0 1 0 0)" d="m289.21 312.18h9.336v10.253h-9.336z" fill="#966c4a" stroke-width="0"/>
<path transform="matrix(.89439 -.44729 0 1 0 0)" d="m289.21 322.44h9.336v10.253h-9.336z" fill="#966c4a" stroke-width="0"/>
<path transform="matrix(.89439 -.44729 0 1 0 0)" d="m289.21 332.69h9.336v10.253h-9.336z" fill="#79553a" stroke-width="0"/>
<path transform="matrix(.89439 -.44729 0 1 0 0)" d="m289.21 342.94h9.336v10.253h-9.336z" fill="#b9855c" stroke-width="0"/>
<path transform="matrix(.89439 -.44729 0 1 0 0)" d="m289.21 353.19h9.336v10.253h-9.336z" fill="#79553a" stroke-width="0"/>
<path transform="matrix(.89439 -.44729 0 1 0 0)" d="m289.21 363.45h9.336v10.253h-9.336z" fill="#966c4a" stroke-width="0"/>
<path transform="matrix(.89439 -.44729 0 1 0 0)" d="m298.55 209.66h9.336v10.253h-9.336z" fill="#4d7643" stroke-width="0"/>
<path transform="matrix(.89439 -.44729 0 1 0 0)" d="m298.55 219.91h9.336v10.253h-9.336z" fill="#527d47" stroke-width="0"/>
<path transform="matrix(.89439 -.44729 0 1 0 0)" d="m298.55 230.16h9.336v10.253h-9.336z" fill="#496f3f" stroke-width="0"/>
<path transform="matrix(.89439 -.44729 0 1 0 0)" d="m298.55 240.41h9.336v10.253h-9.336z" fill="#593d29" stroke-width="0"/>
<path transform="matrix(.89439 -.44729 0 1 0 0)" d="m298.55 250.67h9.336v10.253h-9.336z" fill="#593d29" stroke-width="0"/>
<path transform="matrix(.89439 -.44729 0 1 0 0)" d="m298.55 260.92h9.336v10.253h-9.336z" fill="#79553a" stroke-width="0"/>
<path transform="matrix(.89439 -.44729 0 1 0 0)" d="m298.55 271.17h9.336v10.253h-9.336z" fill="#79553a" stroke-width="0"/>
<path transform="matrix(.89439 -.44729 0 1 0 0)" d="m298.55 281.42h9.336v10.253h-9.336z" fill="#966c4a" stroke-width="0"/>
<path transform="matrix(.89439 -.44729 0 1 0 0)" d="m298.55 291.68h9.336v10.253h-9.336z" fill="#593d29" stroke-width="0"/>
<path transform="matrix(.89439 -.44729 0 1 0 0)" d="m298.55 301.93h9.336v10.253h-9.336z" fill="#79553a" stroke-width="0"/>
<path transform="matrix(.89439 -.44729 0 1 0 0)" d="m298.55 312.18h9.336v10.253h-9.336z" fill="#878787" stroke-width="0"/>
<path transform="matrix(.89439 -.44729 0 1 0 0)" d="m298.55 322.44h9.336v10.253h-9.336z" fill="#79553a" stroke-width="0"/>
<path transform="matrix(.89439 -.44729 0 1 0 0)" d="m298.55 332.69h9.336v10.253h-9.336z" fill="#b9855c" stroke-width="0"/>
<path transform="matrix(.89439 -.44729 0 1 0 0)" d="m298.55 342.94h9.336v10.253h-9.336z" fill="#966c4a" stroke-width="0"/>
<path transform="matrix(.89439 -.44729 0 1 0 0)" d="m298.55 353.19h9.336v10.253h-9.336z" fill="#966c4a" stroke-width="0"/>
<path transform="matrix(.89439 -.44729 0 1 0 0)" d="m298.55 363.45h9.336v10.253h-9.336z" fill="#79553a" stroke-width="0"/>
<path transform="matrix(.89439 -.44729 0 1 0 0)" d="m307.88 209.66h9.336v10.253h-9.336z" fill="#496f3f" stroke-width="0"/>
<path transform="matrix(.89439 -.44729 0 1 0 0)" d="m307.88 219.91h9.336v10.253h-9.336z" fill="#44673a" stroke-width="0"/>
<path transform="matrix(.89439 -.44729 0 1 0 0)" d="m307.88 230.16h9.336v10.253h-9.336z" fill="#593d29" stroke-width="0"/>
<path transform="matrix(.89439 -.44729 0 1 0 0)" d="m307.88 240.41h9.336v10.253h-9.336z" fill="#79553a" stroke-width="0"/>
<path transform="matrix(.89439 -.44729 0 1 0 0)" d="m307.88 250.67h9.336v10.253h-9.336z" fill="#79553a" stroke-width="0"/>
<path transform="matrix(.89439 -.44729 0 1 0 0)" d="m307.88 260.92h9.336v10.253h-9.336z" fill="#b9855c" stroke-width="0"/>
<path transform="matrix(.89439 -.44729 0 1 0 0)" d="m307.88 271.17h9.336v10.253h-9.336z" fill="#966c4a" stroke-width="0"/>
<path transform="matrix(.89439 -.44729 0 1 0 0)" d="m307.88 281.42h9.336v10.253h-9.336z" fill="#966c4a" stroke-width="0"/>
<path transform="matrix(.89439 -.44729 0 1 0 0)" d="m307.88 291.68h9.336v10.253h-9.336z" fill="#79553a" stroke-width="0"/>
<path transform="matrix(.89439 -.44729 0 1 0 0)" d="m307.88 301.93h9.336v10.253h-9.336z" fill="#966c4a" stroke-width="0"/>
<path transform="matrix(.89439 -.44729 0 1 0 0)" d="m307.88 312.18h9.336v10.253h-9.336z" fill="#79553a" stroke-width="0"/>
<path transform="matrix(.89439 -.44729 0 1 0 0)" d="m307.88 322.44h9.336v10.253h-9.336z" fill="#593d29" stroke-width="0"/>
<path transform="matrix(.89439 -.44729 0 1 0 0)" d="m307.88 332.69h9.336v10.253h-9.336z" fill="#b9855c" stroke-width="0"/>
<path transform="matrix(.89439 -.44729 0 1 0 0)" d="m307.88 342.94h9.336v10.253h-9.336z" fill="#966c4a" stroke-width="0"/>
<path transform="matrix(.89439 -.44729 0 1 0 0)" d="m307.88 353.19h9.336v10.253h-9.336z" fill="#966c4a" stroke-width="0"/>
<path transform="matrix(.89439 -.44729 0 1 0 0)" d="m307.88 363.45h9.336v10.253h-9.336z" fill="#593d29" stroke-width="0"/>
<path transform="matrix(.89442 .44722 -.89442 .44722 0 0)" d="m84.998-82.708h9.3273v9.3273h-9.3273z" fill="#486e3e" stroke-width="0"/>
<path transform="matrix(.89442 .44722 -.89442 .44722 0 0)" d="m84.998-73.381h9.3273v9.3273h-9.3273z" fill="#486e3f" stroke-width="0"/>
<path transform="matrix(.89442 .44722 -.89442 .44722 0 0)" d="m84.998-64.054h9.3273v9.3273h-9.3273z" fill="#4f7944" stroke-width="0"/>
<path transform="matrix(.89442 .44722 -.89442 .44722 0 0)" d="m84.998-54.726h9.3273v9.3273h-9.3273z" fill="#395732" stroke-width="0"/>
<path transform="matrix(.89442 .44722 -.89442 .44722 0 0)" d="m84.998-45.399h9.3273v9.3273h-9.3273z" fill="#4f7844" stroke-width="0"/>
<path transform="matrix(.89442 .44722 -.89442 .44722 0 0)" d="m84.998-36.072h9.3273v9.3273h-9.3273z" fill="#4a7140" stroke-width="0"/>
<path transform="matrix(.89442 .44722 -.89442 .44722 0 0)" d="m84.998-26.744h9.3273v9.3273h-9.3273z" fill="#3d5d35" stroke-width="0"/>
<path transform="matrix(.89442 .44722 -.89442 .44722 0 0)" d="m84.998-17.417h9.3273v9.3273h-9.3273z" fill="#466a3c" stroke-width="0"/>
<path transform="matrix(.89442 .44722 -.89442 .44722 0 0)" d="m84.998-8.0896h9.3273v9.3273h-9.3273z" fill="#517c46" stroke-width="0"/>
<path transform="matrix(.89442 .44722 -.89442 .44722 0 0)" d="m84.998 1.2377h9.3273v9.3273h-9.3273z" fill="#49703f" stroke-width="0"/>
<path transform="matrix(.89442 .44722 -.89442 .44722 0 0)" d="m84.998 10.565h9.3273v9.3273h-9.3273z" fill="#4b7341" stroke-width="0"/>
<path transform="matrix(.89442 .44722 -.89442 .44722 0 0)" d="m84.998 19.892h9.3273v9.3273h-9.3273z" fill="#406237" stroke-width="0"/>
<path transform="matrix(.89442 .44722 -.89442 .44722 0 0)" d="m84.998 29.22h9.3273v9.3273h-9.3273z" fill="#5a8a4e" stroke-width="0"/>
<path transform="matrix(.89442 .44722 -.89442 .44722 0 0)" d="m84.998 38.547h9.3273v9.3273h-9.3273z" fill="#3f6036" stroke-width="0"/>
<path transform="matrix(.89442 .44722 -.89442 .44722 0 0)" d="m84.998 47.874h9.3273v9.3273h-9.3273z" fill="#4f7944" stroke-width="0"/>
<path transform="matrix(.89442 .44722 -.89442 .44722 0 0)" d="m84.998 57.202h9.3273v9.3273h-9.3273z" fill="#416338" stroke-width="0"/>
<path transform="matrix(.89442 .44722 -.89442 .44722 0 0)" d="m94.325-82.708h9.3273v9.3273h-9.3273z" fill="#5f9152" stroke-width="0"/>
<path transform="matrix(.89442 .44722 -.89442 .44722 0 0)" d="m94.325-73.381h9.3273v9.3273h-9.3273z" fill="#44683b" stroke-width="0"/>
<path transform="matrix(.89442 .44722 -.89442 .44722 0 0)" d="m94.325-64.054h9.3273v9.3273h-9.3273z" fill="#45693b" stroke-width="0"/>
<path transform="matrix(.89442 .44722 -.89442 .44722 0 0)" d="m94.325-54.726h9.3273v9.3273h-9.3273z" fill="#416338" stroke-width="0"/>
<path transform="matrix(.89442 .44722 -.89442 .44722 0 0)" d="m94.325-45.399h9.3273v9.3273h-9.3273z" fill="#406137" stroke-width="0"/>
<path transform="matrix(.89442 .44722 -.89442 .44722 0 0)" d="m94.325-36.072h9.3273v9.3273h-9.3273z" fill="#4a7140" stroke-width="0"/>
<path transform="matrix(.89442 .44722 -.89442 .44722 0 0)" d="m94.325-26.744h9.3273v9.3273h-9.3273z" fill="#4c7441" stroke-width="0"/>
<path transform="matrix(.89442 .44722 -.89442 .44722 0 0)" d="m94.325-17.417h9.3273v9.3273h-9.3273z" fill="#426439" stroke-width="0"/>
<path transform="matrix(.89442 .44722 -.89442 .44722 0 0)" d="m94.325-8.0896h9.3273v9.3273h-9.3273z" fill="#4b7341" stroke-width="0"/>
<path transform="matrix(.89442 .44722 -.89442 .44722 0 0)" d="m94.325 1.2377h9.3273v9.3273h-9.3273z" fill="#3f6037" stroke-width="0"/>
<path transform="matrix(.89442 .44722 -.89442 .44722 0 0)" d="m94.325 10.565h9.3273v9.3273h-9.3273z" fill="#4d7542" stroke-width="0"/>
<path transform="matrix(.89442 .44722 -.89442 .44722 0 0)" d="m94.325 19.892h9.3273v9.3273h-9.3273z" fill="#548049" stroke-width="0"/>
<path transform="matrix(.89442 .44722 -.89442 .44722 0 0)" d="m94.325 29.22h9.3273v9.3273h-9.3273z" fill="#49703f" stroke-width="0"/>
<path transform="matrix(.89442 .44722 -.89442 .44722 0 0)" d="m94.325 38.547h9.3273v9.3273h-9.3273z" fill="#527d46" stroke-width="0"/>
<path transform="matrix(.89442 .44722 -.89442 .44722 0 0)" d="m94.325 47.874h9.3273v9.3273h-9.3273z" fill="#4e7744" stroke-width="0"/>
<path transform="matrix(.89442 .44722 -.89442 .44722 0 0)" d="m94.325 57.202h9.3273v9.3273h-9.3273z" fill="#496f3f" stroke-width="0"/>
<path transform="matrix(.89442 .44722 -.89442 .44722 0 0)" d="m103.65-82.708h9.3273v9.3273h-9.3273z" fill="#476d3e" stroke-width="0"/>
<path transform="matrix(.89442 .44722 -.89442 .44722 0 0)" d="m103.65-73.381h9.3273v9.3273h-9.3273z" fill="#4e7743" stroke-width="0"/>
<path transform="matrix(.89442 .44722 -.89442 .44722 0 0)" d="m103.65-64.054h9.3273v9.3273h-9.3273z" fill="#3d5d34" stroke-width="0"/>
<path transform="matrix(.89442 .44722 -.89442 .44722 0 0)" d="m103.65-54.726h9.3273v9.3273h-9.3273z" fill="#43663a" stroke-width="0"/>
<path transform="matrix(.89442 .44722 -.89442 .44722 0 0)" d="m103.65-45.399h9.3273v9.3273h-9.3273z" fill="#548049" stroke-width="0"/>
<path transform="matrix(.89442 .44722 -.89442 .44722 0 0)" d="m103.65-36.072h9.3273v9.3273h-9.3273z" fill="#3a5932" stroke-width="0"/>
<path transform="matrix(.89442 .44722 -.89442 .44722 0 0)" d="m103.65-26.744h9.3273v9.3273h-9.3273z" fill="#507a45" stroke-width="0"/>
<path transform="matrix(.89442 .44722 -.89442 .44722 0 0)" d="m103.65-17.417h9.3273v9.3273h-9.3273z" fill="#4c7442" stroke-width="0"/>
<path transform="matrix(.89442 .44722 -.89442 .44722 0 0)" d="m103.65-8.0896h9.3273v9.3273h-9.3273z" fill="#59874c" stroke-width="0"/>
<path transform="matrix(.89442 .44722 -.89442 .44722 0 0)" d="m103.65 1.2377h9.3273v9.3273h-9.3273z" fill="#59884d" stroke-width="0"/>
<path transform="matrix(.89442 .44722 -.89442 .44722 0 0)" d="m103.65 10.565h9.3273v9.3273h-9.3273z" fill="#49703f" stroke-width="0"/>
<path transform="matrix(.89442 .44722 -.89442 .44722 0 0)" d="m103.65 19.892h9.3273v9.3273h-9.3273z" fill="#416338" stroke-width="0"/>
<path transform="matrix(.89442 .44722 -.89442 .44722 0 0)" d="m103.65 29.22h9.3273v9.3273h-9.3273z" fill="#3f6036" stroke-width="0"/>
<path transform="matrix(.89442 .44722 -.89442 .44722 0 0)" d="m103.65 38.547h9.3273v9.3273h-9.3273z" fill="#395732" stroke-width="0"/>
<path transform="matrix(.89442 .44722 -.89442 .44722 0 0)" d="m103.65 47.874h9.3273v9.3273h-9.3273z" fill="#5d8e51" stroke-width="0"/>
<path transform="matrix(.89442 .44722 -.89442 .44722 0 0)" d="m103.65 57.202h9.3273v9.3273h-9.3273z" fill="#426539" stroke-width="0"/>
<path transform="matrix(.89442 .44722 -.89442 .44722 0 0)" d="m112.98-82.708h9.3273v9.3273h-9.3273z" fill="#416338" stroke-width="0"/>
<path transform="matrix(.89442 .44722 -.89442 .44722 0 0)" d="m112.98-73.381h9.3273v9.3273h-9.3273z" fill="#49703f" stroke-width="0"/>
<path transform="matrix(.89442 .44722 -.89442 .44722 0 0)" d="m112.98-64.054h9.3273v9.3273h-9.3273z" fill="#406237" stroke-width="0"/>
<path transform="matrix(.89442 .44722 -.89442 .44722 0 0)" d="m112.98-54.726h9.3273v9.3273h-9.3273z" fill="#49703f" stroke-width="0"/>
<path transform="matrix(.89442 .44722 -.89442 .44722 0 0)" d="m112.98-45.399h9.3273v9.3273h-9.3273z" fill="#406137" stroke-width="0"/>
<path transform="matrix(.89442 .44722 -.89442 .44722 0 0)" d="m112.98-36.072h9.3273v9.3273h-9.3273z" fill="#517b46" stroke-width="0"/>
<path transform="matrix(.89442 .44722 -.89442 .44722 0 0)" d="m112.98-26.744h9.3273v9.3273h-9.3273z" fill="#466b3c" stroke-width="0"/>
<path transform="matrix(.89442 .44722 -.89442 .44722 0 0)" d="m112.98-17.417h9.3273v9.3273h-9.3273z" fill="#44673a" stroke-width="0"/>
<path transform="matrix(.89442 .44722 -.89442 .44722 0 0)" d="m112.98-8.0896h9.3273v9.3273h-9.3273z" fill="#537e47" stroke-width="0"/>
<path transform="matrix(.89442 .44722 -.89442 .44722 0 0)" d="m112.98 1.2377h9.3273v9.3273h-9.3273z" fill="#45693b" stroke-width="0"/>
<path transform="matrix(.89442 .44722 -.89442 .44722 0 0)" d="m112.98 10.565h9.3273v9.3273h-9.3273z" fill="#507a45" stroke-width="0"/>
<path transform="matrix(.89442 .44722 -.89442 .44722 0 0)" d="m112.98 19.892h9.3273v9.3273h-9.3273z" fill="#4f7944" stroke-width="0"/>
<path transform="matrix(.89442 .44722 -.89442 .44722 0 0)" d="m112.98 29.22h9.3273v9.3273h-9.3273z" fill="#43663a" stroke-width="0"/>
<path transform="matrix(.89442 .44722 -.89442 .44722 0 0)" d="m112.98 38.547h9.3273v9.3273h-9.3273z" fill="#476c3d" stroke-width="0"/>
<path transform="matrix(.89442 .44722 -.89442 .44722 0 0)" d="m112.98 47.874h9.3273v9.3273h-9.3273z" fill="#3c5b34" stroke-width="0"/>
<path transform="matrix(.89442 .44722 -.89442 .44722 0 0)" d="m112.98 57.202h9.3273v9.3273h-9.3273z" fill="#436639" stroke-width="0"/>
<path transform="matrix(.89442 .44722 -.89442 .44722 0 0)" d="m122.31-82.708h9.3273v9.3273h-9.3273z" fill="#416338" stroke-width="0"/>
<path transform="matrix(.89442 .44722 -.89442 .44722 0 0)" d="m122.31-73.381h9.3273v9.3273h-9.3273z" fill="#4a7140" stroke-width="0"/>
<path transform="matrix(.89442 .44722 -.89442 .44722 0 0)" d="m122.31-64.054h9.3273v9.3273h-9.3273z" fill="#436639" stroke-width="0"/>
<path transform="matrix(.89442 .44722 -.89442 .44722 0 0)" d="m122.31-54.726h9.3273v9.3273h-9.3273z" fill="#476b3d" stroke-width="0"/>
<path transform="matrix(.89442 .44722 -.89442 .44722 0 0)" d="m122.31-45.399h9.3273v9.3273h-9.3273z" fill="#547f48" stroke-width="0"/>
<path transform="matrix(.89442 .44722 -.89442 .44722 0 0)" d="m122.31-36.072h9.3273v9.3273h-9.3273z" fill="#3f6036" stroke-width="0"/>
<path transform="matrix(.89442 .44722 -.89442 .44722 0 0)" d="m122.31-26.744h9.3273v9.3273h-9.3273z" fill="#476c3d" stroke-width="0"/>
<path transform="matrix(.89442 .44722 -.89442 .44722 0 0)" d="m122.31-17.417h9.3273v9.3273h-9.3273z" fill="#466b3c" stroke-width="0"/>
<path transform="matrix(.89442 .44722 -.89442 .44722 0 0)" d="m122.31-8.0896h9.3273v9.3273h-9.3273z" fill="#547f48" stroke-width="0"/>
<path transform="matrix(.89442 .44722 -.89442 .44722 0 0)" d="m122.31 1.2377h9.3273v9.3273h-9.3273z" fill="#44683b" stroke-width="0"/>
<path transform="matrix(.89442 .44722 -.89442 .44722 0 0)" d="m122.31 10.565h9.3273v9.3273h-9.3273z" fill="#3f6037" stroke-width="0"/>
<path transform="matrix(.89442 .44722 -.89442 .44722 0 0)" d="m122.31 19.892h9.3273v9.3273h-9.3273z" fill="#49703f" stroke-width="0"/>
<path transform="matrix(.89442 .44722 -.89442 .44722 0 0)" d="m122.31 29.22h9.3273v9.3273h-9.3273z" fill="#4a7140" stroke-width="0"/>
<path transform="matrix(.89442 .44722 -.89442 .44722 0 0)" d="m122.31 38.547h9.3273v9.3273h-9.3273z" fill="#3d5d34" stroke-width="0"/>
<path transform="matrix(.89442 .44722 -.89442 .44722 0 0)" d="m122.31 47.874h9.3273v9.3273h-9.3273z" fill="#57854b" stroke-width="0"/>
<path transform="matrix(.89442 .44722 -.89442 .44722 0 0)" d="m122.31 57.202h9.3273v9.3273h-9.3273z" fill="#507a45" stroke-width="0"/>
<path transform="matrix(.89442 .44722 -.89442 .44722 0 0)" d="m131.63-82.708h9.3273v9.3273h-9.3273z" fill="#466a3c" stroke-width="0"/>
<path transform="matrix(.89442 .44722 -.89442 .44722 0 0)" d="m131.63-73.381h9.3273v9.3273h-9.3273z" fill="#3e5f36" stroke-width="0"/>
<path transform="matrix(.89442 .44722 -.89442 .44722 0 0)" d="m131.63-64.054h9.3273v9.3273h-9.3273z" fill="#426539" stroke-width="0"/>
<path transform="matrix(.89442 .44722 -.89442 .44722 0 0)" d="m131.63-54.726h9.3273v9.3273h-9.3273z" fill="#4a7140" stroke-width="0"/>
<path transform="matrix(.89442 .44722 -.89442 .44722 0 0)" d="m131.63-45.399h9.3273v9.3273h-9.3273z" fill="#558149" stroke-width="0"/>
<path transform="matrix(.89442 .44722 -.89442 .44722 0 0)" d="m131.63-36.072h9.3273v9.3273h-9.3273z" fill="#496f3f" stroke-width="0"/>
<path transform="matrix(.89442 .44722 -.89442 .44722 0 0)" d="m131.63-26.744h9.3273v9.3273h-9.3273z" fill="#406137" stroke-width="0"/>
<path transform="matrix(.89442 .44722 -.89442 .44722 0 0)" d="m131.63-17.417h9.3273v9.3273h-9.3273z" fill="#3c5c34" stroke-width="0"/>
<path transform="matrix(.89442 .44722 -.89442 .44722 0 0)" d="m131.63-8.0896h9.3273v9.3273h-9.3273z" fill="#3f6036" stroke-width="0"/>
<path transform="matrix(.89442 .44722 -.89442 .44722 0 0)" d="m131.63 1.2377h9.3273v9.3273h-9.3273z" fill="#4a7140" stroke-width="0"/>
<path transform="matrix(.89442 .44722 -.89442 .44722 0 0)" d="m131.63 10.565h9.3273v9.3273h-9.3273z" fill="#59874c" stroke-width="0"/>
<path transform="matrix(.89442 .44722 -.89442 .44722 0 0)" d="m131.63 19.892h9.3273v9.3273h-9.3273z" fill="#406237" stroke-width="0"/>
<path transform="matrix(.89442 .44722 -.89442 .44722 0 0)" d="m131.63 29.22h9.3273v9.3273h-9.3273z" fill="#476b3d" stroke-width="0"/>
<path transform="matrix(.89442 .44722 -.89442 .44722 0 0)" d="m131.63 38.547h9.3273v9.3273h-9.3273z" fill="#4a7140" stroke-width="0"/>
<path transform="matrix(.89442 .44722 -.89442 .44722 0 0)" d="m131.63 47.874h9.3273v9.3273h-9.3273z" fill="#537f48" stroke-width="0"/>
<path transform="matrix(.89442 .44722 -.89442 .44722 0 0)" d="m131.63 57.202h9.3273v9.3273h-9.3273z" fill="#4a7140" stroke-width="0"/>
<path transform="matrix(.89442 .44722 -.89442 .44722 0 0)" d="m140.96-82.708h9.3273v9.3273h-9.3273z" fill="#3e5e35" stroke-width="0"/>
<path transform="matrix(.89442 .44722 -.89442 .44722 0 0)" d="m140.96-73.381h9.3273v9.3273h-9.3273z" fill="#4a7140" stroke-width="0"/>
<path transform="matrix(.89442 .44722 -.89442 .44722 0 0)" d="m140.96-64.054h9.3273v9.3273h-9.3273z" fill="#466b3c" stroke-width="0"/>
<path transform="matrix(.89442 .44722 -.89442 .44722 0 0)" d="m140.96-54.726h9.3273v9.3273h-9.3273z" fill="#3d5d34" stroke-width="0"/>
<path transform="matrix(.89442 .44722 -.89442 .44722 0 0)" d="m140.96-45.399h9.3273v9.3273h-9.3273z" fill="#426539" stroke-width="0"/>
<path transform="matrix(.89442 .44722 -.89442 .44722 0 0)" d="m140.96-36.072h9.3273v9.3273h-9.3273z" fill="#486e3f" stroke-width="0"/>
<path transform="matrix(.89442 .44722 -.89442 .44722 0 0)" d="m140.96-26.744h9.3273v9.3273h-9.3273z" fill="#43663a" stroke-width="0"/>
<path transform="matrix(.89442 .44722 -.89442 .44722 0 0)" d="m140.96-17.417h9.3273v9.3273h-9.3273z" fill="#507a45" stroke-width="0"/>
<path transform="matrix(.89442 .44722 -.89442 .44722 0 0)" d="m140.96-8.0896h9.3273v9.3273h-9.3273z" fill="#548049" stroke-width="0"/>
<path transform="matrix(.89442 .44722 -.89442 .44722 0 0)" d="m140.96 1.2377h9.3273v9.3273h-9.3273z" fill="#537e47" stroke-width="0"/>
<path transform="matrix(.89442 .44722 -.89442 .44722 0 0)" d="m140.96 10.565h9.3273v9.3273h-9.3273z" fill="#45693c" stroke-width="0"/>
<path transform="matrix(.89442 .44722 -.89442 .44722 0 0)" d="m140.96 19.892h9.3273v9.3273h-9.3273z" fill="#476c3d" stroke-width="0"/>
<path transform="matrix(.89442 .44722 -.89442 .44722 0 0)" d="m140.96 29.22h9.3273v9.3273h-9.3273z" fill="#416338" stroke-width="0"/>
<path transform="matrix(.89442 .44722 -.89442 .44722 0 0)" d="m140.96 38.547h9.3273v9.3273h-9.3273z" fill="#3f6036" stroke-width="0"/>
<path transform="matrix(.89442 .44722 -.89442 .44722 0 0)" d="m140.96 47.874h9.3273v9.3273h-9.3273z" fill="#486e3e" stroke-width="0"/>
<path transform="matrix(.89442 .44722 -.89442 .44722 0 0)" d="m140.96 57.202h9.3273v9.3273h-9.3273z" fill="#486e3e" stroke-width="0"/>
<path transform="matrix(.89442 .44722 -.89442 .44722 0 0)" d="m150.29-82.708h9.3273v9.3273h-9.3273z" fill="#44683b" stroke-width="0"/>
<path transform="matrix(.89442 .44722 -.89442 .44722 0 0)" d="m150.29-73.381h9.3273v9.3273h-9.3273z" fill="#3f6037" stroke-width="0"/>
<path transform="matrix(.89442 .44722 -.89442 .44722 0 0)" d="m150.29-64.054h9.3273v9.3273h-9.3273z" fill="#466b3c" stroke-width="0"/>
<path transform="matrix(.89442 .44722 -.89442 .44722 0 0)" d="m150.29-54.726h9.3273v9.3273h-9.3273z" fill="#476c3d" stroke-width="0"/>
<path transform="matrix(.89442 .44722 -.89442 .44722 0 0)" d="m150.29-45.399h9.3273v9.3273h-9.3273z" fill="#547f48" stroke-width="0"/>
<path transform="matrix(.89442 .44722 -.89442 .44722 0 0)" d="m150.29-36.072h9.3273v9.3273h-9.3273z" fill="#4b7341" stroke-width="0"/>
<path transform="matrix(.89442 .44722 -.89442 .44722 0 0)" d="m150.29-26.744h9.3273v9.3273h-9.3273z" fill="#3e5e35" stroke-width="0"/>
<path transform="matrix(.89442 .44722 -.89442 .44722 0 0)" d="m150.29-17.417h9.3273v9.3273h-9.3273z" fill="#406237" stroke-width="0"/>
<path transform="matrix(.89442 .44722 -.89442 .44722 0 0)" d="m150.29-8.0896h9.3273v9.3273h-9.3273z" fill="#4c7441" stroke-width="0"/>
<path transform="matrix(.89442 .44722 -.89442 .44722 0 0)" d="m150.29 1.2377h9.3273v9.3273h-9.3273z" fill="#3e5f36" stroke-width="0"/>
<path transform="matrix(.89442 .44722 -.89442 .44722 0 0)" d="m150.29 10.565h9.3273v9.3273h-9.3273z" fill="#476d3e" stroke-width="0"/>
<path transform="matrix(.89442 .44722 -.89442 .44722 0 0)" d="m150.29 19.892h9.3273v9.3273h-9.3273z" fill="#436639" stroke-width="0"/>
<path transform="matrix(.89442 .44722 -.89442 .44722 0 0)" d="m150.29 29.22h9.3273v9.3273h-9.3273z" fill="#3b5a33" stroke-width="0"/>
<path transform="matrix(.89442 .44722 -.89442 .44722 0 0)" d="m150.29 38.547h9.3273v9.3273h-9.3273z" fill="#5f9152" stroke-width="0"/>
<path transform="matrix(.89442 .44722 -.89442 .44722 0 0)" d="m150.29 47.874h9.3273v9.3273h-9.3273z" fill="#476d3e" stroke-width="0"/>
<path transform="matrix(.89442 .44722 -.89442 .44722 0 0)" d="m150.29 57.202h9.3273v9.3273h-9.3273z" fill="#476d3e" stroke-width="0"/>
<path transform="matrix(.89442 .44722 -.89442 .44722 0 0)" d="m159.62-82.708h9.3273v9.3273h-9.3273z" fill="#4d7542" stroke-width="0"/>
<path transform="matrix(.89442 .44722 -.89442 .44722 0 0)" d="m159.62-73.381h9.3273v9.3273h-9.3273z" fill="#3e5e35" stroke-width="0"/>
<path transform="matrix(.89442 .44722 -.89442 .44722 0 0)" d="m159.62-64.054h9.3273v9.3273h-9.3273z" fill="#486e3e" stroke-width="0"/>
<path transform="matrix(.89442 .44722 -.89442 .44722 0 0)" d="m159.62-54.726h9.3273v9.3273h-9.3273z" fill="#3e5e35" stroke-width="0"/>
<path transform="matrix(.89442 .44722 -.89442 .44722 0 0)" d="m159.62-45.399h9.3273v9.3273h-9.3273z" fill="#5a8a4e" stroke-width="0"/>
<path transform="matrix(.89442 .44722 -.89442 .44722 0 0)" d="m159.62-36.072h9.3273v9.3273h-9.3273z" fill="#426439" stroke-width="0"/>
<path transform="matrix(.89442 .44722 -.89442 .44722 0 0)" d="m159.62-26.744h9.3273v9.3273h-9.3273z" fill="#406237" stroke-width="0"/>
<path transform="matrix(.89442 .44722 -.89442 .44722 0 0)" d="m159.62-17.417h9.3273v9.3273h-9.3273z" fill="#49703f" stroke-width="0"/>
<path transform="matrix(.89442 .44722 -.89442 .44722 0 0)" d="m159.62-8.0896h9.3273v9.3273h-9.3273z" fill="#57854b" stroke-width="0"/>
<path transform="matrix(.89442 .44722 -.89442 .44722 0 0)" d="m159.62 1.2377h9.3273v9.3273h-9.3273z" fill="#426439" stroke-width="0"/>
<path transform="matrix(.89442 .44722 -.89442 .44722 0 0)" d="m159.62 10.565h9.3273v9.3273h-9.3273z" fill="#5d8e51" stroke-width="0"/>
<path transform="matrix(.89442 .44722 -.89442 .44722 0 0)" d="m159.62 19.892h9.3273v9.3273h-9.3273z" fill="#49703f" stroke-width="0"/>
<path transform="matrix(.89442 .44722 -.89442 .44722 0 0)" d="m159.62 29.22h9.3273v9.3273h-9.3273z" fill="#43663a" stroke-width="0"/>
<path transform="matrix(.89442 .44722 -.89442 .44722 0 0)" d="m159.62 38.547h9.3273v9.3273h-9.3273z" fill="#4e7744" stroke-width="0"/>
<path transform="matrix(.89442 .44722 -.89442 .44722 0 0)" d="m159.62 47.874h9.3273v9.3273h-9.3273z" fill="#3d5d35" stroke-width="0"/>
<path transform="matrix(.89442 .44722 -.89442 .44722 0 0)" d="m159.62 57.202h9.3273v9.3273h-9.3273z" fill="#45693c" stroke-width="0"/>
<path transform="matrix(.89442 .44722 -.89442 .44722 0 0)" d="m168.94-82.708h9.3273v9.3273h-9.3273z" fill="#496f3f" stroke-width="0"/>
<path transform="matrix(.89442 .44722 -.89442 .44722 0 0)" d="m168.94-73.381h9.3273v9.3273h-9.3273z" fill="#527d47" stroke-width="0"/>
<path transform="matrix(.89442 .44722 -.89442 .44722 0 0)" d="m168.94-64.054h9.3273v9.3273h-9.3273z" fill="#4d7643" stroke-width="0"/>
<path transform="matrix(.89442 .44722 -.89442 .44722 0 0)" d="m168.94-54.726h9.3273v9.3273h-9.3273z" fill="#406137" stroke-width="0"/>
<path transform="matrix(.89442 .44722 -.89442 .44722 0 0)" d="m168.94-45.399h9.3273v9.3273h-9.3273z" fill="#395731" stroke-width="0"/>
<path transform="matrix(.89442 .44722 -.89442 .44722 0 0)" d="m168.94-36.072h9.3273v9.3273h-9.3273z" fill="#486e3f" stroke-width="0"/>
<path transform="matrix(.89442 .44722 -.89442 .44722 0 0)" d="m168.94-26.744h9.3273v9.3273h-9.3273z" fill="#426439" stroke-width="0"/>
<path transform="matrix(.89442 .44722 -.89442 .44722 0 0)" d="m168.94-17.417h9.3273v9.3273h-9.3273z" fill="#548049" stroke-width="0"/>
<path transform="matrix(.89442 .44722 -.89442 .44722 0 0)" d="m168.94-8.0896h9.3273v9.3273h-9.3273z" fill="#537e47" stroke-width="0"/>
<path transform="matrix(.89442 .44722 -.89442 .44722 0 0)" d="m168.94 1.2377h9.3273v9.3273h-9.3273z" fill="#476b3d" stroke-width="0"/>
<path transform="matrix(.89442 .44722 -.89442 .44722 0 0)" d="m168.94 10.565h9.3273v9.3273h-9.3273z" fill="#3b5a33" stroke-width="0"/>
<path transform="matrix(.89442 .44722 -.89442 .44722 0 0)" d="m168.94 19.892h9.3273v9.3273h-9.3273z" fill="#476c3d" stroke-width="0"/>
<path transform="matrix(.89442 .44722 -.89442 .44722 0 0)" d="m168.94 29.22h9.3273v9.3273h-9.3273z" fill="#476b3d" stroke-width="0"/>
<path transform="matrix(.89442 .44722 -.89442 .44722 0 0)" d="m168.94 38.547h9.3273v9.3273h-9.3273z" fill="#476d3e" stroke-width="0"/>
<path transform="matrix(.89442 .44722 -.89442 .44722 0 0)" d="m168.94 47.874h9.3273v9.3273h-9.3273z" fill="#486e3f" stroke-width="0"/>
<path transform="matrix(.89442 .44722 -.89442 .44722 0 0)" d="m168.94 57.202h9.3273v9.3273h-9.3273z" fill="#5d8e50" stroke-width="0"/>
<path transform="matrix(.89442 .44722 -.89442 .44722 0 0)" d="m178.27-82.708h9.3273v9.3273h-9.3273z" fill="#43663a" stroke-width="0"/>
<path transform="matrix(.89442 .44722 -.89442 .44722 0 0)" d="m178.27-73.381h9.3273v9.3273h-9.3273z" fill="#517b46" stroke-width="0"/>
<path transform="matrix(.89442 .44722 -.89442 .44722 0 0)" d="m178.27-64.054h9.3273v9.3273h-9.3273z" fill="#527d46" stroke-width="0"/>
<path transform="matrix(.89442 .44722 -.89442 .44722 0 0)" d="m178.27-54.726h9.3273v9.3273h-9.3273z" fill="#45693b" stroke-width="0"/>
<path transform="matrix(.89442 .44722 -.89442 .44722 0 0)" d="m178.27-45.399h9.3273v9.3273h-9.3273z" fill="#3e5f36" stroke-width="0"/>
<path transform="matrix(.89442 .44722 -.89442 .44722 0 0)" d="m178.27-36.072h9.3273v9.3273h-9.3273z" fill="#426539" stroke-width="0"/>
<path transform="matrix(.89442 .44722 -.89442 .44722 0 0)" d="m178.27-26.744h9.3273v9.3273h-9.3273z" fill="#58864c" stroke-width="0"/>
<path transform="matrix(.89442 .44722 -.89442 .44722 0 0)" d="m178.27-17.417h9.3273v9.3273h-9.3273z" fill="#426439" stroke-width="0"/>
<path transform="matrix(.89442 .44722 -.89442 .44722 0 0)" d="m178.27-8.0896h9.3273v9.3273h-9.3273z" fill="#3f6037" stroke-width="0"/>
<path transform="matrix(.89442 .44722 -.89442 .44722 0 0)" d="m178.27 1.2377h9.3273v9.3273h-9.3273z" fill="#476c3d" stroke-width="0"/>
<path transform="matrix(.89442 .44722 -.89442 .44722 0 0)" d="m178.27 10.565h9.3273v9.3273h-9.3273z" fill="#517c46" stroke-width="0"/>
<path transform="matrix(.89442 .44722 -.89442 .44722 0 0)" d="m178.27 19.892h9.3273v9.3273h-9.3273z" fill="#44683b" stroke-width="0"/>
<path transform="matrix(.89442 .44722 -.89442 .44722 0 0)" d="m178.27 29.22h9.3273v9.3273h-9.3273z" fill="#43663a" stroke-width="0"/>
<path transform="matrix(.89442 .44722 -.89442 .44722 0 0)" d="m178.27 38.547h9.3273v9.3273h-9.3273z" fill="#527d46" stroke-width="0"/>
<path transform="matrix(.89442 .44722 -.89442 .44722 0 0)" d="m178.27 47.874h9.3273v9.3273h-9.3273z" fill="#486e3f" stroke-width="0"/>
<path transform="matrix(.89442 .44722 -.89442 .44722 0 0)" d="m178.27 57.202h9.3273v9.3273h-9.3273z" fill="#3c5c34" stroke-width="0"/>
<path transform="matrix(.89442 .44722 -.89442 .44722 0 0)" d="m187.6-82.708h9.3273v9.3273h-9.3273z" fill="#426439" stroke-width="0"/>
<path transform="matrix(.89442 .44722 -.89442 .44722 0 0)" d="m187.6-73.381h9.3273v9.3273h-9.3273z" fill="#476d3e" stroke-width="0"/>
<path transform="matrix(.89442 .44722 -.89442 .44722 0 0)" d="m187.6-64.054h9.3273v9.3273h-9.3273z" fill="#548049" stroke-width="0"/>
<path transform="matrix(.89442 .44722 -.89442 .44722 0 0)" d="m187.6-54.726h9.3273v9.3273h-9.3273z" fill="#49703f" stroke-width="0"/>
<path transform="matrix(.89442 .44722 -.89442 .44722 0 0)" d="m187.6-45.399h9.3273v9.3273h-9.3273z" fill="#517c46" stroke-width="0"/>
<path transform="matrix(.89442 .44722 -.89442 .44722 0 0)" d="m187.6-36.072h9.3273v9.3273h-9.3273z" fill="#406137" stroke-width="0"/>
<path transform="matrix(.89442 .44722 -.89442 .44722 0 0)" d="m187.6-26.744h9.3273v9.3273h-9.3273z" fill="#547f48" stroke-width="0"/>
<path transform="matrix(.89442 .44722 -.89442 .44722 0 0)" d="m187.6-17.417h9.3273v9.3273h-9.3273z" fill="#3f6036" stroke-width="0"/>
<path transform="matrix(.89442 .44722 -.89442 .44722 0 0)" d="m187.6-8.0896h9.3273v9.3273h-9.3273z" fill="#476c3d" stroke-width="0"/>
<path transform="matrix(.89442 .44722 -.89442 .44722 0 0)" d="m187.6 1.2377h9.3273v9.3273h-9.3273z" fill="#527d47" stroke-width="0"/>
<path transform="matrix(.89442 .44722 -.89442 .44722 0 0)" d="m187.6 10.565h9.3273v9.3273h-9.3273z" fill="#406137" stroke-width="0"/>
<path transform="matrix(.89442 .44722 -.89442 .44722 0 0)" d="m187.6 19.892h9.3273v9.3273h-9.3273z" fill="#3c5b34" stroke-width="0"/>
<path transform="matrix(.89442 .44722 -.89442 .44722 0 0)" d="m187.6 29.22h9.3273v9.3273h-9.3273z" fill="#3d5d34" stroke-width="0"/>
<path transform="matrix(.89442 .44722 -.89442 .44722 0 0)" d="m187.6 38.547h9.3273v9.3273h-9.3273z" fill="#4b7341" stroke-width="0"/>
<path transform="matrix(.89442 .44722 -.89442 .44722 0 0)" d="m187.6 47.874h9.3273v9.3273h-9.3273z" fill="#426439" stroke-width="0"/>
<path transform="matrix(.89442 .44722 -.89442 .44722 0 0)" d="m187.6 57.202h9.3273v9.3273h-9.3273z" fill="#527d47" stroke-width="0"/>
<path transform="matrix(.89442 .44722 -.89442 .44722 0 0)" d="m196.93-82.708h9.3273v9.3273h-9.3273z" fill="#436639" stroke-width="0"/>
<path transform="matrix(.89442 .44722 -.89442 .44722 0 0)" d="m196.93-73.381h9.3273v9.3273h-9.3273z" fill="#5f9152" stroke-width="0"/>
<path transform="matrix(.89442 .44722 -.89442 .44722 0 0)" d="m196.93-64.054h9.3273v9.3273h-9.3273z" fill="#426439" stroke-width="0"/>
<path transform="matrix(.89442 .44722 -.89442 .44722 0 0)" d="m196.93-54.726h9.3273v9.3273h-9.3273z" fill="#466a3c" stroke-width="0"/>
<path transform="matrix(.89442 .44722 -.89442 .44722 0 0)" d="m196.93-45.399h9.3273v9.3273h-9.3273z" fill="#537f48" stroke-width="0"/>
<path transform="matrix(.89442 .44722 -.89442 .44722 0 0)" d="m196.93-36.072h9.3273v9.3273h-9.3273z" fill="#3a5932" stroke-width="0"/>
<path transform="matrix(.89442 .44722 -.89442 .44722 0 0)" d="m196.93-26.744h9.3273v9.3273h-9.3273z" fill="#476b3d" stroke-width="0"/>
<path transform="matrix(.89442 .44722 -.89442 .44722 0 0)" d="m196.93-17.417h9.3273v9.3273h-9.3273z" fill="#466a3c" stroke-width="0"/>
<path transform="matrix(.89442 .44722 -.89442 .44722 0 0)" d="m196.93-8.0896h9.3273v9.3273h-9.3273z" fill="#416338" stroke-width="0"/>
<path transform="matrix(.89442 .44722 -.89442 .44722 0 0)" d="m196.93 1.2377h9.3273v9.3273h-9.3273z" fill="#45693c" stroke-width="0"/>
<path transform="matrix(.89442 .44722 -.89442 .44722 0 0)" d="m196.93 10.565h9.3273v9.3273h-9.3273z" fill="#466a3c" stroke-width="0"/>
<path transform="matrix(.89442 .44722 -.89442 .44722 0 0)" d="m196.93 19.892h9.3273v9.3273h-9.3273z" fill="#57854b" stroke-width="0"/>
<path transform="matrix(.89442 .44722 -.89442 .44722 0 0)" d="m196.93 29.22h9.3273v9.3273h-9.3273z" fill="#4d7643" stroke-width="0"/>
<path transform="matrix(.89442 .44722 -.89442 .44722 0 0)" d="m196.93 38.547h9.3273v9.3273h-9.3273z" fill="#4e7743" stroke-width="0"/>
<path transform="matrix(.89442 .44722 -.89442 .44722 0 0)" d="m196.93 47.874h9.3273v9.3273h-9.3273z" fill="#527d47" stroke-width="0"/>
<path transform="matrix(.89442 .44722 -.89442 .44722 0 0)" d="m196.93 57.202h9.3273v9.3273h-9.3273z" fill="#406237" stroke-width="0"/>
<path transform="matrix(.89442 .44722 -.89442 .44722 0 0)" d="m206.25-82.708h9.3273v9.3273h-9.3273z" fill="#517c46" stroke-width="0"/>
<path transform="matrix(.89442 .44722 -.89442 .44722 0 0)" d="m206.25-73.381h9.3273v9.3273h-9.3273z" fill="#44683b" stroke-width="0"/>
<path transform="matrix(.89442 .44722 -.89442 .44722 0 0)" d="m206.25-64.054h9.3273v9.3273h-9.3273z" fill="#3a5832" stroke-width="0"/>
<path transform="matrix(.89442 .44722 -.89442 .44722 0 0)" d="m206.25-54.726h9.3273v9.3273h-9.3273z" fill="#44673a" stroke-width="0"/>
<path transform="matrix(.89442 .44722 -.89442 .44722 0 0)" d="m206.25-45.399h9.3273v9.3273h-9.3273z" fill="#3d5d35" stroke-width="0"/>
<path transform="matrix(.89442 .44722 -.89442 .44722 0 0)" d="m206.25-36.072h9.3273v9.3273h-9.3273z" fill="#426539" stroke-width="0"/>
<path transform="matrix(.89442 .44722 -.89442 .44722 0 0)" d="m206.25-26.744h9.3273v9.3273h-9.3273z" fill="#517c46" stroke-width="0"/>
<path transform="matrix(.89442 .44722 -.89442 .44722 0 0)" d="m206.25-17.417h9.3273v9.3273h-9.3273z" fill="#4e7743" stroke-width="0"/>
<path transform="matrix(.89442 .44722 -.89442 .44722 0 0)" d="m206.25-8.0896h9.3273v9.3273h-9.3273z" fill="#476d3e" stroke-width="0"/>
<path transform="matrix(.89442 .44722 -.89442 .44722 0 0)" d="m206.25 1.2377h9.3273v9.3273h-9.3273z" fill="#57854b" stroke-width="0"/>
<path transform="matrix(.89442 .44722 -.89442 .44722 0 0)" d="m206.25 10.565h9.3273v9.3273h-9.3273z" fill="#426539" stroke-width="0"/>
<path transform="matrix(.89442 .44722 -.89442 .44722 0 0)" d="m206.25 19.892h9.3273v9.3273h-9.3273z" fill="#3e5e35" stroke-width="0"/>
<path transform="matrix(.89442 .44722 -.89442 .44722 0 0)" d="m206.25 29.22h9.3273v9.3273h-9.3273z" fill="#507a45" stroke-width="0"/>
<path transform="matrix(.89442 .44722 -.89442 .44722 0 0)" d="m206.25 38.547h9.3273v9.3273h-9.3273z" fill="#426539" stroke-width="0"/>
<path transform="matrix(.89442 .44722 -.89442 .44722 0 0)" d="m206.25 47.874h9.3273v9.3273h-9.3273z" fill="#4c7442" stroke-width="0"/>
<path transform="matrix(.89442 .44722 -.89442 .44722 0 0)" d="m206.25 57.202h9.3273v9.3273h-9.3273z" fill="#466b3c" stroke-width="0"/>
<path transform="matrix(.89442 .44722 -.89442 .44722 0 0)" d="m215.58-82.708h9.3273v9.3273h-9.3273z" fill="#36532f" stroke-width="0"/>
<path transform="matrix(.89442 .44722 -.89442 .44722 0 0)" d="m215.58-73.381h9.3273v9.3273h-9.3273z" fill="#426439" stroke-width="0"/>
<path transform="matrix(.89442 .44722 -.89442 .44722 0 0)" d="m215.58-64.054h9.3273v9.3273h-9.3273z" fill="#3e5f36" stroke-width="0"/>
<path transform="matrix(.89442 .44722 -.89442 .44722 0 0)" d="m215.58-54.726h9.3273v9.3273h-9.3273z" fill="#517c46" stroke-width="0"/>
<path transform="matrix(.89442 .44722 -.89442 .44722 0 0)" d="m215.58-45.399h9.3273v9.3273h-9.3273z" fill="#426539" stroke-width="0"/>
<path transform="matrix(.89442 .44722 -.89442 .44722 0 0)" d="m215.58-36.072h9.3273v9.3273h-9.3273z" fill="#45693c" stroke-width="0"/>
<path transform="matrix(.89442 .44722 -.89442 .44722 0 0)" d="m215.58-26.744h9.3273v9.3273h-9.3273z" fill="#49703f" stroke-width="0"/>
<path transform="matrix(.89442 .44722 -.89442 .44722 0 0)" d="m215.58-17.417h9.3273v9.3273h-9.3273z" fill="#3e5e35" stroke-width="0"/>
<path transform="matrix(.89442 .44722 -.89442 .44722 0 0)" d="m215.58-8.0896h9.3273v9.3273h-9.3273z" fill="#4d7542" stroke-width="0"/>
<path transform="matrix(.89442 .44722 -.89442 .44722 0 0)" d="m215.58 1.2377h9.3273v9.3273h-9.3273z" fill="#466a3c" stroke-width="0"/>
<path transform="matrix(.89442 .44722 -.89442 .44722 0 0)" d="m215.58 10.565h9.3273v9.3273h-9.3273z" fill="#49703f" stroke-width="0"/>
<path transform="matrix(.89442 .44722 -.89442 .44722 0 0)" d="m215.58 19.892h9.3273v9.3273h-9.3273z" fill="#3d5d34" stroke-width="0"/>
<path transform="matrix(.89442 .44722 -.89442 .44722 0 0)" d="m215.58 29.22h9.3273v9.3273h-9.3273z" fill="#3b5a33" stroke-width="0"/>
<path transform="matrix(.89442 .44722 -.89442 .44722 0 0)" d="m215.58 38.547h9.3273v9.3273h-9.3273z" fill="#527d46" stroke-width="0"/>
<path transform="matrix(.89442 .44722 -.89442 .44722 0 0)" d="m215.58 47.874h9.3273v9.3273h-9.3273z" fill="#44673a" stroke-width="0"/>
<path transform="matrix(.89442 .44722 -.89442 .44722 0 0)" d="m215.58 57.202h9.3273v9.3273h-9.3273z" fill="#426539" stroke-width="0"/>
<path transform="matrix(.89442 .44722 -.89442 .44722 0 0)" d="m224.91-82.708h9.3273v9.3273h-9.3273z" fill="#45693b" stroke-width="0"/>
<path transform="matrix(.89442 .44722 -.89442 .44722 0 0)" d="m224.91-73.381h9.3273v9.3273h-9.3273z" fill="#44673a" stroke-width="0"/>
<path transform="matrix(.89442 .44722 -.89442 .44722 0 0)" d="m224.91-64.054h9.3273v9.3273h-9.3273z" fill="#59874c" stroke-width="0"/>
<path transform="matrix(.89442 .44722 -.89442 .44722 0 0)" d="m224.91-54.726h9.3273v9.3273h-9.3273z" fill="#3d5d34" stroke-width="0"/>
<path transform="matrix(.89442 .44722 -.89442 .44722 0 0)" d="m224.91-45.399h9.3273v9.3273h-9.3273z" fill="#45693b" stroke-width="0"/>
<path transform="matrix(.89442 .44722 -.89442 .44722 0 0)" d="m224.91-36.072h9.3273v9.3273h-9.3273z" fill="#486e3e" stroke-width="0"/>
<path transform="matrix(.89442 .44722 -.89442 .44722 0 0)" d="m224.91-26.744h9.3273v9.3273h-9.3273z" fill="#466a3c" stroke-width="0"/>
<path transform="matrix(.89442 .44722 -.89442 .44722 0 0)" d="m224.91-17.417h9.3273v9.3273h-9.3273z" fill="#527d47" stroke-width="0"/>
<path transform="matrix(.89442 .44722 -.89442 .44722 0 0)" d="m224.91-8.0896h9.3273v9.3273h-9.3273z" fill="#3d5d35" stroke-width="0"/>
<path transform="matrix(.89442 .44722 -.89442 .44722 0 0)" d="m224.91 1.2377h9.3273v9.3273h-9.3273z" fill="#3f6036" stroke-width="0"/>
<path transform="matrix(.89442 .44722 -.89442 .44722 0 0)" d="m224.91 10.565h9.3273v9.3273h-9.3273z" fill="#466a3c" stroke-width="0"/>
<path transform="matrix(.89442 .44722 -.89442 .44722 0 0)" d="m224.91 19.892h9.3273v9.3273h-9.3273z" fill="#43663a" stroke-width="0"/>
<path transform="matrix(.89442 .44722 -.89442 .44722 0 0)" d="m224.91 29.22h9.3273v9.3273h-9.3273z" fill="#49703f" stroke-width="0"/>
<path transform="matrix(.89442 .44722 -.89442 .44722 0 0)" d="m224.91 38.547h9.3273v9.3273h-9.3273z" fill="#558149" stroke-width="0"/>
<path transform="matrix(.89442 .44722 -.89442 .44722 0 0)" d="m224.91 47.874h9.3273v9.3273h-9.3273z" fill="#3b5a33" stroke-width="0"/>
<path transform="matrix(.89442 .44722 -.89442 .44722 0 0)" d="m224.91 57.202h9.3273v9.3273h-9.3273z" fill="#4d7542" stroke-width="0"/>
<path d="m24.869 92.448v10.252l8.3496 4.1758v-10.252zm8.3496 14.428v10.254l16.699 8.3516v-10.254l-8.3496-4.1758zm16.699 18.605v10.252l8.3516 4.1758v-10.252zm8.3516 4.1758 25.049 12.527v-20.506l-8.3496-4.1758v10.252l-8.3496-4.1758v-20.504l-8.3496-4.1758v20.504zm25.049 12.527v10.252l-16.699-8.3516v10.254l25.049 12.527v-10.254l8.3516 4.1758 8.3496 4.1758v-10.252l-8.3496-4.1758v-10.252l-8.3516-4.1758v10.252zm25.051 12.527 8.3496 4.1758v-10.252l-8.3496-4.1758zm8.3496-6.0762 8.3496 4.1758v-10.254l-8.3496-4.1758zm8.3496 4.1758v10.252l8.3496 4.1758v10.254l8.3516 4.1758v-20.506l-8.3516-4.1758zm16.701 8.3516 8.3496 4.1758v-10.252l-8.3496-4.1777zm-116.9-58.463-8.3496-4.1758v10.252l8.3496 4.1758z" fill="#593d29" stroke-width="0"/>
<path d="m283.72 88.272-8.3516 4.1758v10.254l8.3516-4.1758zm-8.3516 14.43-16.699 8.3516v10.252l8.3496-4.1758v10.252l8.3496-4.1758v-10.252zm-16.699 8.3516v-10.254l-8.3496 4.1758v10.254zm-8.3496 4.1758-8.3496 4.1758v10.252l8.3496-4.1758zm-8.3496 14.428-8.3516 4.1758v-10.252l-8.3496 4.1758v10.252l-8.3496 4.1758v10.254l-16.699 8.3516v10.252l25.049-12.527v-10.252l8.3496-4.1758 8.3516-4.1758zm0 10.254v10.252l8.3496-4.1758v-10.252zm-25.051 2.2734v-20.504l-8.3496 4.1758v10.252l-8.3496 4.1758v-20.506l-8.3516 4.1758v30.76l8.3516-4.1777 8.3496-4.1758zm-25.051 12.529-8.3496 4.1758v10.252l8.3496-4.1758zm-8.3496 4.1758v-10.254l-16.699 8.3516v10.254l8.3496-4.1758zm-16.699-1.9023v-10.252l-8.3496 4.1758v10.252zm-8.3496 4.1758-8.3516 4.1758v10.254l8.3516-4.1758z" fill="#593d29" stroke-width="0"/>
<rect transform="matrix(.89439 .44729 0 1 0 0)" x="17.822" y="59.594" width="149.89" height="164.12" rx=".4735" ry=".53571" opacity=".182" style="paint-order:fill markers stroke"/>
<rect transform="matrix(-.89439 .44729 0 1 0 0)" x="-317.73" y="209.65" width="149.89" height="164.12" rx=".4735" ry=".53571" opacity=".392" style="paint-order:fill markers stroke"/>
</svg>